<?xml version="1.0" standalone="no"?>
<!DOCTYPE svg PUBLIC "-//W3C//DTD SVG 20010904//EN"
 "http://www.w3.org/TR/2001/REC-SVG-20010904/DTD/svg10.dtd">
<svg version="1.0" xmlns="http://www.w3.org/2000/svg"
 width="212.000000pt" height="212.000000pt" viewBox="0 0 212.000000 212.000000"
 preserveAspectRatio="xMidYMid meet">

<g transform="translate(0.000000,212.000000) scale(0.100000,-0.100000)"
fill="#000000" stroke="none">
<path d="M879 2094 c-346 -62 -650 -304 -785 -624 -62 -147 -79 -237 -79 -415
0 -136 4 -174 24 -249 96 -365 354 -643 703 -756 203 -65 443 -65 646 0 290
94 536 319 648 595 66 161 77 221 77 410 0 183 -11 245 -67 388 -24 58 -26 76
-26 215 l0 152 -106 0 -106 0 -63 53 c-141 117 -323 201 -502 232 -104 18
-262 18 -364 -1z m397 -18 c161 -34 306 -102 435 -203 l74 -58 -358 -3 -357
-2 0 -145 0 -144 -334 -3 c-321 -3 -336 -4 -363 -24 -15 -11 -38 -36 -50 -54
-23 -33 -23 -36 -23 -407 0 -355 1 -376 20 -413 13 -26 34 -47 60 -60 38 -19
58 -20 663 -20 l624 0 34 23 c19 12 44 42 57 67 22 45 23 47 20 413 l-3 367
122 0 122 0 3 28 c3 21 9 10 30 -53 43 -128 52 -191 52 -335 -2 -256 -81 -475
-241 -665 -150 -178 -350 -298 -588 -352 -95 -22 -325 -22 -420 0 -238 54
-438 174 -588 352 -162 192 -240 410 -240 670 0 154 12 226 63 366 121 336
440 602 790 659 41 6 82 13 90 15 33 8 239 -5 306 -19z m734 -466 l0 -190
-270 0 -269 0 -188 -144 c-103 -79 -189 -143 -190 -142 -1 1 18 65 42 141 25
77 45 141 45 142 0 1 -21 3 -47 5 l-48 3 -2 188 -3 187 465 0 465 0 0 -190z
m-940 -160 l0 -40 45 0 c25 0 45 -4 45 -9 0 -11 -50 -172 -57 -183 -2 -4 -67
24 -143 62 -77 39 -142 70 -145 70 -3 0 -5 -146 -5 -324 l0 -325 319 162 c176
89 316 165 312 170 -4 4 -67 38 -140 76 l-132 68 154 116 154 117 132 0 131 0
0 -380 0 -380 -34 -38 -34 -37 -619 -3 c-573 -2 -621 -1 -653 15 -68 35 -70
45 -70 443 0 325 2 358 18 389 37 69 49 71 404 71 l318 0 0 -40z m-99 -210
l120 -61 -7 -36 -7 -36 32 24 31 23 120 -59 c66 -33 120 -62 120 -65 0 -3
-122 -66 -270 -142 l-270 -136 0 274 c0 151 2 274 5 274 3 0 59 -27 126 -60z"/>
<path d="M1210 1700 c0 -6 120 -10 340 -10 220 0 340 4 340 10 0 6 -120 10
-340 10 -220 0 -340 -4 -340 -10z"/>
<path d="M1210 1590 c0 -6 120 -10 340 -10 220 0 340 4 340 10 0 6 -120 10
-340 10 -220 0 -340 -4 -340 -10z"/>
<path d="M1210 1490 c0 -6 120 -10 340 -10 220 0 340 4 340 10 0 6 -120 10
-340 10 -220 0 -340 -4 -340 -10z"/>
</g>
</svg>
