<?xml version="1.0" standalone="no"?>
<!DOCTYPE svg PUBLIC "-//W3C//DTD SVG 20010904//EN"
 "http://www.w3.org/TR/2001/REC-SVG-20010904/DTD/svg10.dtd">
<svg version="1.0" xmlns="http://www.w3.org/2000/svg"
 width="1024.000000pt" height="1024.000000pt" viewBox="0 0 1024.000000 1024.000000"
 preserveAspectRatio="xMidYMid meet">
<metadata>
Created by potrace 1.14, written by Peter Selinger 2001-2017
</metadata>
<g transform="translate(0.000000,1024.000000) scale(0.100000,-0.100000)"
fill="#000000" stroke="none">
<path d="M9124 10056 c-17 -8 -116 -67 -220 -133 -233 -148 -375 -231 -642
-374 -328 -177 -530 -301 -694 -427 -168 -128 -222 -200 -375 -506 -92 -184
-156 -297 -183 -321 -20 -18 -20 -17 -20 13 0 40 39 147 110 302 69 151 93
215 88 231 -5 15 -132 -91 -383 -322 -333 -306 -481 -438 -680 -608 -384 -328
-734 -678 -1265 -1261 -710 -780 -901 -1021 -1230 -1555 -68 -110 -178 -288
-245 -395 -201 -321 -361 -615 -661 -1212 -199 -398 -291 -572 -309 -584 -37
-24 -130 -32 -473 -40 l-312 -7 2 -231 3 -231 95 -7 c108 -8 173 -26 178 -49
4 -22 -85 -82 -265 -178 -174 -92 -213 -116 -300 -184 -70 -54 -126 -125 -148
-187 -51 -144 -165 -1066 -165 -1332 0 -151 22 -184 137 -213 207 -51 575 -69
1278 -62 821 8 1264 40 1429 104 23 9 44 19 47 22 6 6 -12 418 -26 581 -38
447 -96 804 -150 909 -37 74 -173 212 -276 281 -48 32 -123 72 -167 89 -44 17
-110 45 -147 62 -148 71 -118 142 67 157 l83 7 3 231 2 231 -192 13 c-304 19
-302 6 -28 143 129 64 298 139 375 167 308 113 538 211 797 341 340 170 492
268 823 534 238 192 345 285 345 303 0 16 -49 24 -180 31 l-125 6 72 32 c70
31 95 39 215 63 79 16 164 74 283 194 120 121 140 143 751 876 777 933 1043
1274 1044 1338 0 21 -43 14 -202 -32 -273 -80 -571 -185 -848 -300 -200 -83
-184 -9 20 94 89 44 322 134 658 254 481 171 499 181 596 310 73 99 130 196
316 546 90 168 222 415 295 550 247 458 304 568 466 891 88 177 195 383 236
458 166 299 205 402 151 401 -13 -1 -37 -7 -54 -14z m-7461 -8877 c12 -7 25
-17 29 -23 12 -18 9 -64 -4 -69 -9 -3 -6 -12 10 -29 55 -60 -6 -140 -95 -123
-65 12 -96 82 -53 120 14 13 17 22 10 29 -12 12 -13 56 -2 72 21 31 69 42 105
23z m697 -4 c27 -14 30 -14 30 0 0 9 5 13 10 10 6 -3 10 -28 10 -56 0 -37 -4
-49 -15 -49 -9 0 -15 9 -15 24 0 57 -72 77 -109 30 -29 -37 -29 -112 0 -148
17 -22 28 -27 58 -24 30 2 38 9 50 36 17 36 31 42 31 11 0 -56 -70 -94 -130
-69 -85 35 -84 193 1 237 31 17 44 16 79 -2z m-410 -31 c0 -32 2 -35 23 -29
12 4 24 7 27 7 54 1 70 -20 70 -94 0 -51 3 -61 20 -65 37 -10 20 -23 -30 -23
-27 0 -50 5 -50 10 0 6 6 10 14 10 17 0 26 55 17 101 -6 28 -12 35 -36 37 -39
5 -55 -19 -55 -85 0 -46 3 -53 20 -53 11 0 20 -4 20 -10 0 -5 -22 -10 -50 -10
-27 0 -50 5 -50 10 0 6 7 10 15 10 12 0 15 18 15 100 0 80 -3 100 -14 100 -8
0 -18 5 -21 10 -4 6 8 10 29 10 35 0 36 -1 36 -36z m632 -43 c9 -9 20 -28 23
-43 l7 -28 -65 0 c-36 0 -68 -4 -71 -8 -3 -4 1 -19 7 -33 19 -37 64 -38 93 -2
21 26 23 26 24 7 0 -41 -48 -65 -102 -51 -34 9 -50 38 -50 90 1 79 81 120 134
68z m918 9 c0 -5 -7 -10 -15 -10 -8 0 -15 -4 -15 -8 0 -13 32 -106 39 -114 3
-4 16 20 28 53 22 60 22 61 3 66 -11 3 -17 9 -14 14 7 12 94 11 94 -1 0 -5 -6
-10 -14 -10 -7 0 -29 -39 -50 -90 -48 -115 -68 -140 -111 -140 -36 0 -60 21
-51 45 8 22 36 18 36 -5 0 -11 5 -20 11 -20 23 0 49 22 49 43 0 38 -53 160
-72 165 -36 9 -17 22 32 22 28 0 50 -4 50 -10z m-1422 -366 c27 -19 30 -74 4
-97 -9 -9 -41 -19 -70 -23 -46 -6 -52 -9 -52 -29 0 -36 11 -55 31 -55 10 0 19
-4 19 -10 0 -6 -27 -10 -60 -10 -58 0 -80 12 -40 23 18 5 20 14 20 97 0 83 -2
92 -20 97 -45 12 -15 23 63 23 59 0 89 -5 105 -16z m192 -72 c41 -51 14 -143
-44 -154 -68 -13 -116 51 -95 128 18 63 99 78 139 26z m182 9 c9 -9 20 -28 23
-43 l7 -28 -65 0 c-36 0 -68 -4 -71 -8 -3 -4 1 -19 7 -33 19 -37 64 -38 93 -2
21 26 23 26 24 7 0 -41 -48 -65 -102 -51 -34 9 -50 38 -50 90 1 79 81 120 134
68z m468 9 c0 -5 -7 -10 -15 -10 -8 0 -15 -4 -15 -8 0 -13 32 -106 39 -114 3
-4 16 20 28 53 22 60 22 61 3 66 -11 3 -17 9 -14 14 7 12 94 11 94 -1 0 -5 -6
-10 -14 -10 -7 0 -29 -39 -50 -90 -48 -115 -68 -140 -111 -140 -36 0 -60 21
-51 45 8 22 36 18 36 -5 0 -11 5 -20 11 -20 23 0 49 22 49 43 0 38 -53 160
-72 165 -36 9 -17 22 32 22 28 0 50 -4 50 -10z"/>
</g>
</svg>
