<svg id="svg" version="1.1" width="400" height="400" xmlns="http://www.w3.org/2000/svg" xmlns:xlink="http://www.w3.org/1999/xlink" style="display: block;"><g id="svgg"><path id="path0" d="M180.400 102.673 C 174.032 103.992,46.183 138.691,44.672 139.511 C 40.684 141.676,38.215 145.949,38.265 150.600 C 38.303 154.143,73.323 285.239,75.110 288.528 C 76.413 290.926,78.310 292.618,81.182 293.942 C 85.535 295.950,83.298 296.439,142.000 280.656 L 195.000 266.406 253.400 282.047 C 310.378 297.307,311.873 297.684,314.800 297.510 C 319.247 297.247,322.853 295.100,325.000 291.437 C 326.916 288.166,362.128 155.509,361.905 152.400 C 361.573 147.773,358.731 143.623,354.635 141.781 C 351.770 140.493,219.704 105.200,217.749 105.200 C 209.870 105.200,206.713 108.894,203.131 122.304 C 201.765 127.417,200.547 131.599,200.424 131.598 C 200.301 131.596,199.057 127.231,197.659 121.898 C 194.901 111.368,194.001 108.941,192.025 106.690 C 189.594 103.921,183.891 101.951,180.400 102.673 M187.400 104.580 C 190.090 105.780,191.630 107.152,192.885 109.467 C 193.853 111.253,200.003 133.057,199.998 134.688 C 199.997 135.080,193.247 160.591,184.998 191.380 C 168.859 251.619,169.240 249.938,170.803 254.117 C 172.655 259.065,175.262 260.743,185.200 263.381 C 193.669 265.630,193.696 265.638,193.518 265.815 C 192.795 266.538,88.217 294.072,86.145 294.085 C 81.919 294.111,77.889 291.767,75.911 288.133 C 74.234 285.052,39.108 153.753,39.103 150.546 C 39.096 146.310,41.442 142.284,45.068 140.310 C 46.795 139.371,177.355 104.017,181.000 103.502 C 182.926 103.230,185.252 103.622,187.400 104.580 M286.053 123.968 C 322.932 133.850,353.822 142.301,354.698 142.748 C 358.289 144.580,361.200 149.315,361.200 153.324 C 361.200 155.446,325.851 287.552,324.555 290.273 C 322.784 293.992,319.139 296.395,314.798 296.707 C 311.921 296.913,180.793 262.213,176.764 260.178 C 173.201 258.380,170.781 254.593,170.515 250.400 C 170.347 247.752,205.217 115.848,206.993 112.413 C 208.821 108.878,213.336 106.166,217.600 106.041 C 218.371 106.018,249.174 114.086,286.053 123.968 M123.143 166.729 L 119.286 167.772 119.050 170.386 C 118.516 176.273,115.121 229.654,115.270 229.804 C 115.466 229.999,121.845 228.288,122.184 227.949 C 122.315 227.818,122.680 223.433,122.996 218.204 C 123.311 212.976,123.646 208.620,123.741 208.526 C 123.997 208.270,142.896 203.221,143.640 203.210 C 144.033 203.204,146.333 206.287,149.600 211.200 C 152.526 215.600,155.028 219.201,155.160 219.201 C 156.581 219.209,162.376 217.314,162.215 216.894 C 161.651 215.424,127.887 165.606,127.480 165.643 C 127.216 165.666,125.264 166.155,123.143 166.729 M249.423 193.738 C 243.457 216.017,242.041 221.781,242.466 222.056 C 243.303 222.597,251.343 225.150,254.943 226.018 C 267.388 229.020,275.517 227.088,279.925 220.079 C 284.488 212.824,282.690 203.940,275.683 199.120 L 273.890 197.886 276.839 197.137 C 290.120 193.765,291.442 177.904,278.989 171.341 C 274.696 169.079,266.210 166.758,259.677 166.060 L 256.914 165.765 249.423 193.738 M269.124 173.633 C 276.593 175.619,280.005 178.835,279.996 183.884 C 279.986 189.709,275.797 193.600,269.538 193.600 C 267.310 193.600,259.591 191.936,258.398 191.199 C 257.927 190.907,261.755 174.442,262.706 172.672 C 262.925 172.263,265.313 172.621,269.124 173.633 M127.000 176.100 C 127.880 177.685,131.345 183.094,134.700 188.119 C 141.576 198.418,141.314 197.835,139.300 198.362 C 138.475 198.577,134.678 199.587,130.863 200.606 C 127.047 201.625,123.834 202.368,123.723 202.256 C 123.612 202.145,123.809 197.755,124.160 192.501 C 124.512 187.247,124.800 180.754,124.800 178.074 C 124.800 172.381,124.890 172.300,127.000 176.100 M265.300 199.033 C 279.462 203.737,277.480 221.455,262.800 221.381 C 259.277 221.363,252.665 219.953,250.852 218.832 C 250.468 218.595,254.610 201.609,256.192 196.931 C 256.348 196.470,260.400 197.406,265.300 199.033 " stroke="none" fill="#000000" fill-rule="evenodd"></path><path id="path1" d="M169.709 249.600 C 169.709 250.590,169.787 250.995,169.882 250.500 C 169.978 250.005,169.978 249.195,169.882 248.700 C 169.787 248.205,169.709 248.610,169.709 249.600 " stroke="none" fill="#363636" fill-rule="evenodd"></path><path id="path2" d="M360.901 153.400 C 360.905 154.280,360.987 154.593,361.083 154.095 C 361.179 153.598,361.175 152.878,361.075 152.495 C 360.975 152.113,360.896 152.520,360.901 153.400 M124.948 177.200 C 124.948 179.510,125.014 180.455,125.095 179.300 C 125.176 178.145,125.176 176.255,125.095 175.100 C 125.014 173.945,124.948 174.890,124.948 177.200 M287.709 184.000 C 287.709 184.990,287.787 185.395,287.882 184.900 C 287.978 184.405,287.978 183.595,287.882 183.100 C 287.787 182.605,287.709 183.010,287.709 184.000 M262.105 221.487 C 262.714 221.579,263.614 221.577,264.105 221.482 C 264.597 221.387,264.100 221.311,263.000 221.314 C 261.900 221.317,261.497 221.395,262.105 221.487 M277.775 222.900 L 276.600 224.200 277.900 223.025 C 278.615 222.379,279.200 221.794,279.200 221.725 C 279.200 221.416,278.870 221.688,277.775 222.900 " stroke="none" fill="#6b6b6b" fill-rule="evenodd"></path><path id="path3" d="M282.400 173.325 C 282.400 173.394,282.985 173.979,283.700 174.625 L 285.000 175.800 283.825 174.500 C 282.730 173.288,282.400 173.016,282.400 173.325 M124.909 182.800 C 124.909 183.790,124.987 184.195,125.082 183.700 C 125.178 183.205,125.178 182.395,125.082 181.900 C 124.987 181.405,124.909 181.810,124.909 182.800 M283.775 193.700 L 282.600 195.000 283.900 193.825 C 284.615 193.179,285.200 192.594,285.200 192.525 C 285.200 192.216,284.870 192.488,283.775 193.700 M268.705 193.483 C 269.202 193.579,269.922 193.575,270.305 193.475 C 270.687 193.375,270.280 193.296,269.400 193.301 C 268.520 193.305,268.207 193.387,268.705 193.483 M270.400 202.125 C 270.400 202.194,270.985 202.779,271.700 203.425 L 273.000 204.600 271.825 203.300 C 270.730 202.088,270.400 201.816,270.400 202.125 " stroke="none" fill="#969696" fill-rule="evenodd"></path><path id="path4" d="M179.000 104.169 C 177.900 104.480,147.666 112.594,111.813 122.201 C 75.960 131.809,46.116 139.933,45.492 140.256 C 41.896 142.115,39.421 146.354,39.451 150.600 C 39.470 153.177,73.112 280.413,75.436 286.696 C 76.955 290.803,81.471 293.757,86.200 293.738 C 88.422 293.729,180.109 269.706,192.561 265.871 C 192.759 265.810,189.969 264.979,186.361 264.025 C 175.378 261.122,173.176 259.875,170.922 255.286 C 168.559 250.474,167.953 253.295,184.776 190.800 C 192.979 160.330,199.686 135.040,199.681 134.600 C 199.668 133.399,193.604 111.172,192.937 109.879 C 190.550 105.257,184.267 102.684,179.000 104.169 M214.069 106.994 C 210.621 108.070,207.506 111.151,206.437 114.543 C 203.578 123.618,170.800 247.890,170.800 249.656 C 170.800 254.804,173.930 259.127,178.812 260.721 C 187.106 263.429,311.927 296.457,313.868 296.457 C 319.013 296.457,323.206 293.514,324.962 288.670 C 326.725 283.808,360.800 155.121,360.800 153.326 C 360.800 148.658,357.269 143.662,352.996 142.285 C 345.747 139.948,219.061 106.404,217.570 106.427 C 216.596 106.441,215.021 106.697,214.069 106.994 M145.565 191.220 C 155.116 205.511,162.836 217.297,162.720 217.413 C 162.509 217.624,155.660 219.586,155.101 219.595 C 154.937 219.598,152.359 215.934,149.373 211.453 L 143.943 203.307 139.672 204.458 C 137.322 205.091,132.880 206.267,129.800 207.072 C 126.720 207.876,124.120 208.599,124.023 208.678 C 123.857 208.812,122.876 223.678,122.824 226.842 L 122.800 228.283 118.922 229.330 C 116.788 229.905,114.978 230.312,114.899 230.232 C 114.737 230.070,118.808 167.869,118.993 167.678 C 119.155 167.510,127.301 165.264,127.800 165.250 C 128.020 165.243,136.014 176.930,145.565 191.220 M263.048 166.208 C 279.737 169.065,287.764 174.836,287.790 184.000 C 287.810 190.906,283.693 195.861,276.472 197.624 L 274.744 198.046 276.272 199.154 C 286.127 206.302,284.199 221.914,272.899 226.470 C 269.401 227.881,260.704 227.809,254.798 226.321 C 250.134 225.146,242.469 222.629,241.937 222.097 C 241.747 221.907,244.938 209.247,249.097 193.681 L 256.600 165.607 258.048 165.604 C 258.844 165.602,261.094 165.874,263.048 166.208 M260.679 181.327 C 259.426 186.054,258.400 190.174,258.400 190.484 C 258.400 191.361,266.058 193.200,269.710 193.200 C 275.041 193.200,278.708 190.404,279.594 185.663 C 280.811 179.150,275.360 174.486,264.779 172.990 L 262.958 172.733 260.679 181.327 M125.221 177.600 C 125.213 179.690,124.910 185.950,124.547 191.510 C 124.184 197.071,123.980 201.713,124.094 201.827 C 124.342 202.076,139.662 198.050,140.126 197.614 C 140.306 197.445,137.426 192.717,133.726 187.107 C 130.027 181.497,126.603 176.208,126.118 175.353 L 125.235 173.800 125.221 177.600 M253.684 207.478 C 252.113 213.368,250.956 218.308,251.114 218.455 C 251.930 219.218,258.582 220.883,261.613 221.083 C 268.054 221.506,272.197 219.226,273.810 214.369 C 276.411 206.541,272.004 200.988,260.838 198.021 C 258.989 197.529,257.265 197.046,257.008 196.948 C 256.697 196.828,255.581 200.363,253.684 207.478 " stroke="none" fill="#b4b4b4" fill-rule="evenodd"></path></g></svg>