<?xml version="1.0" encoding="UTF-8"?>
<svg version="1.1" xmlns="http://www.w3.org/2000/svg" width="200" height="200">
<path d="M0 0 C1.44709099 -0.01913956 1.44709099 -0.01913956 2.92341614 -0.03866577 C3.96922348 -0.04089142 5.01503082 -0.04311707 6.0925293 -0.04541016 C7.7019062 -0.05539536 7.7019062 -0.05539536 9.34379578 -0.06558228 C11.61768882 -0.07572266 13.89161171 -0.08039887 16.16552734 -0.08007812 C19.64234702 -0.08444203 23.11788831 -0.12072279 26.59448242 -0.15869141 C28.80216037 -0.16456111 31.00984435 -0.16852947 33.2175293 -0.17041016 C34.25726395 -0.18478119 35.2969986 -0.19915222 36.36824036 -0.21395874 C43.61363768 -0.16819447 43.61363768 -0.16819447 47.43505859 2.19873047 C48.06839111 2.88902344 48.70172363 3.57931641 49.35424805 4.29052734 C49.96268555 4.92732422 50.57112305 5.56412109 51.19799805 6.22021484 C51.74456055 6.86216797 52.29112305 7.50412109 52.85424805 8.16552734 C53.40081055 8.80232422 53.94737305 9.43912109 54.51049805 10.09521484 C55.11893555 10.81966797 55.72737305 11.54412109 56.35424805 12.29052734 C57.20524078 13.15683273 58.05623352 14.02313812 58.93301392 14.91569519 C61.90243568 18.5050526 62.03753398 21.95989977 61.93774414 26.4831543 C61.94008057 27.28221695 61.94241699 28.0812796 61.94482422 28.90455627 C61.94643151 31.52998492 61.91249273 34.15363114 61.87768555 36.77880859 C61.87089352 38.60629136 61.86617289 40.43378291 61.86343384 42.26127625 C61.8527752 46.08191526 61.82612096 49.90196624 61.78637695 53.72241211 C61.73533038 58.62992738 61.71033471 63.53710599 61.69544029 68.44485188 C61.6806875 73.11871779 61.65544726 77.79250394 61.62768555 82.46630859 C61.62277477 83.36252741 61.617864 84.25874622 61.61280441 85.18212318 C61.59660316 87.70312945 61.57320389 90.22395199 61.54711914 92.74487305 C61.54285919 93.49861206 61.53859924 94.25235107 61.53421021 95.02893066 C61.46937301 100.17540239 61.46937301 100.17540239 60.35424805 101.29052734 C58.29868143 101.38466422 56.23984624 101.40795732 54.18212891 101.40405273 C53.21630638 101.40427177 53.21630638 101.40427177 52.23097229 101.40449524 C50.09364502 101.4037962 47.95640392 101.39600425 45.8190918 101.38818359 C44.34078519 101.38631938 42.86247797 101.38489549 41.38417053 101.38389587 C37.48626002 101.38007093 33.58838656 101.37024086 29.69049072 101.35919189 C25.71578472 101.34897726 21.74107276 101.34439814 17.76635742 101.33935547 C9.96230404 101.32861856 2.15828123 101.31154244 -5.64575195 101.29052734 C-7.35534611 97.87133903 -6.79291713 93.95330501 -6.79101562 90.19091797 C-6.79437424 89.24774216 -6.79773285 88.30456635 -6.80119324 87.33280945 C-6.81071978 84.20411882 -6.81264709 81.07548159 -6.8137207 77.94677734 C-6.8169317 75.77966286 -6.82029564 73.61254859 -6.82380676 71.44543457 C-6.82980202 66.89916481 -6.83164622 62.35291407 -6.83105469 57.80664062 C-6.83095295 51.96866182 -6.84461535 46.13080432 -6.8618269 40.29285431 C-6.87292021 35.8165836 -6.87497473 31.3403425 -6.87444496 26.86405945 C-6.87562872 24.71098919 -6.88007251 22.55791825 -6.88777733 20.40486145 C-6.89752509 17.39986553 -6.89472009 14.39513652 -6.88867188 11.39013672 C-6.89429138 10.49344772 -6.89991089 9.59675873 -6.90570068 8.67289734 C-6.87354735 2.41750971 -6.52015378 0.05841305 0 0 Z " fill="#F5F5F5" transform="translate(134.645751953125,52.70947265625)"/>
<path d="M0 0 C3.38640162 2.15498285 5.71637257 4.1491177 7 8 C7.125 10.75 7.125 10.75 7 13 C7.886875 13.103125 8.77375 13.20625 9.6875 13.3125 C13.30658492 14.06363083 15.20011378 14.57847679 18 17 C20.03350939 20.60452386 21.21040052 24.06567265 20.7578125 28.2265625 C19.63396737 31.93108903 18.0902039 34.36894968 14.875 36.5625 C10.58019727 38.66851676 6.54693299 37.94856652 2 37 C1.3185177 38.89179203 1.3185177 38.89179203 1 41 C1.66 41.66 2.32 42.32 3 43 C2.61121812 46.01305957 1.73543126 47.39685311 0 50 C-0.17902142 52.65128381 -0.24196579 55.19512452 -0.21118164 57.84521484 C-0.2098674 58.64407104 -0.20855316 59.44292725 -0.2071991 60.26599121 C-0.20069532 62.91442592 -0.18024057 65.56257396 -0.16015625 68.2109375 C-0.15388181 70.05880419 -0.14864306 71.90667466 -0.14439392 73.75454712 C-0.1310708 78.63224401 -0.10665241 83.50981647 -0.07904053 88.38745117 C-0.03601729 96.15830484 -0.00598812 103.92918645 0.0170002 111.70012283 C0.02711215 114.39912123 0.04418551 117.0980095 0.06199646 119.79696655 C0.09997213 127.06578362 0.08954794 134.33423914 -0.25170898 141.59619141 C-0.2978685 142.60324127 -0.34402802 143.61029114 -0.3915863 144.64785767 C-1 147 -1 147 -3.04676819 148.33773804 C-3.69133469 148.55628448 -4.33590118 148.77483093 -5 149 C-6.485 148.01 -6.485 148.01 -8 147 C-8.29296875 144.1796875 -8.29296875 144.1796875 -8.1875 140.875 C-8.16042969 139.77929688 -8.13335937 138.68359375 -8.10546875 137.5546875 C-8.07066406 136.71164063 -8.03585938 135.86859375 -8 135 C-8.66 135 -9.32 135 -10 135 C-10 136.98 -10 138.96 -10 141 C-11.65 141 -13.3 141 -15 141 C-15 140.34 -15 139.68 -15 139 C-16.485 139.99 -16.485 139.99 -18 141 C-20.48046875 141.1953125 -20.48046875 141.1953125 -23.1875 141.125 C-24.08855469 141.10695312 -24.98960938 141.08890625 -25.91796875 141.0703125 C-26.60503906 141.04710937 -27.29210937 141.02390625 -28 141 C-28 138.36 -28 135.72 -28 133 C-25.69 133 -23.38 133 -21 133 C-21 132.01 -21 131.02 -21 130 C-23.31 129.67 -25.62 129.34 -28 129 C-28.042721 127.33388095 -28.04063832 125.66617115 -28 124 C-27 123 -27 123 -23.9375 122.9375 C-22.968125 122.958125 -21.99875 122.97875 -21 123 C-21 122.01 -21 121.02 -21 120 C-23.31 120 -25.62 120 -28 120 C-28 117.36 -28 114.72 -28 112 C-26.37536158 111.94604522 -24.75021459 111.90722805 -23.125 111.875 C-22.22007813 111.85179687 -21.31515625 111.82859375 -20.3828125 111.8046875 C-18 112 -18 112 -16 114 C-15.01 113.01 -15.01 113.01 -14 112 C-11.875 112.375 -11.875 112.375 -10 113 C-10 114.98 -10 116.96 -10 119 C-9.34 119 -8.68 119 -8 119 C-7.67 95.24 -7.34 71.48 -7 47 C-8.485 46.505 -8.485 46.505 -10 46 C-9.67 42.7 -9.34 39.4 -9 36 C-9.99 36.495 -9.99 36.495 -11 37 C-15.00798089 37.64486862 -18.5562631 37.8673096 -22.11328125 35.73046875 C-26.03408189 32.39413529 -27.84704366 30.52956337 -28.375 25.25 C-28.33925671 21.97353159 -27.80558697 20.18502549 -25.75 17.625 C-22.45738814 14.48205232 -20.79407407 13.08154882 -16.25 12.875 C-15.5075 12.91625 -14.765 12.9575 -14 13 C-13.9071875 11.4221875 -13.9071875 11.4221875 -13.8125 9.8125 C-12.85862552 5.33662744 -11.46953013 3.87717133 -8 1 C-5.14675563 -0.42662219 -3.16545451 -0.31033868 0 0 Z " fill="#121212" transform="translate(45,26)"/>
<path d="M0 0 C1.44709099 -0.01913956 1.44709099 -0.01913956 2.92341614 -0.03866577 C3.96922348 -0.04089142 5.01503082 -0.04311707 6.0925293 -0.04541016 C7.7019062 -0.05539536 7.7019062 -0.05539536 9.34379578 -0.06558228 C11.61768882 -0.07572266 13.89161171 -0.08039887 16.16552734 -0.08007812 C19.64234702 -0.08444203 23.11788831 -0.12072279 26.59448242 -0.15869141 C28.80216037 -0.16456111 31.00984435 -0.16852947 33.2175293 -0.17041016 C34.25726395 -0.18478119 35.2969986 -0.19915222 36.36824036 -0.21395874 C43.61363768 -0.16819447 43.61363768 -0.16819447 47.43505859 2.19873047 C48.06839111 2.88902344 48.70172363 3.57931641 49.35424805 4.29052734 C49.96268555 4.92732422 50.57112305 5.56412109 51.19799805 6.22021484 C51.74456055 6.86216797 52.29112305 7.50412109 52.85424805 8.16552734 C53.40081055 8.80232422 53.94737305 9.43912109 54.51049805 10.09521484 C55.11893555 10.81966797 55.72737305 11.54412109 56.35424805 12.29052734 C57.20524078 13.15683273 58.05623352 14.02313812 58.93301392 14.91569519 C61.90243568 18.5050526 62.03753398 21.95989977 61.93774414 26.4831543 C61.94008057 27.28221695 61.94241699 28.0812796 61.94482422 28.90455627 C61.94643151 31.52998492 61.91249273 34.15363114 61.87768555 36.77880859 C61.87089352 38.60629136 61.86617289 40.43378291 61.86343384 42.26127625 C61.8527752 46.08191526 61.82612096 49.90196624 61.78637695 53.72241211 C61.73533038 58.62992738 61.71033471 63.53710599 61.69544029 68.44485188 C61.6806875 73.11871779 61.65544726 77.79250394 61.62768555 82.46630859 C61.62277477 83.36252741 61.617864 84.25874622 61.61280441 85.18212318 C61.59660316 87.70312945 61.57320389 90.22395199 61.54711914 92.74487305 C61.54285919 93.49861206 61.53859924 94.25235107 61.53421021 95.02893066 C61.46937301 100.17540239 61.46937301 100.17540239 60.35424805 101.29052734 C58.29868143 101.38466422 56.23984624 101.40795732 54.18212891 101.40405273 C53.21630638 101.40427177 53.21630638 101.40427177 52.23097229 101.40449524 C50.09364502 101.4037962 47.95640392 101.39600425 45.8190918 101.38818359 C44.34078519 101.38631938 42.86247797 101.38489549 41.38417053 101.38389587 C37.48626002 101.38007093 33.58838656 101.37024086 29.69049072 101.35919189 C25.71578472 101.34897726 21.74107276 101.34439814 17.76635742 101.33935547 C9.96230404 101.32861856 2.15828123 101.31154244 -5.64575195 101.29052734 C-7.35534611 97.87133903 -6.79291713 93.95330501 -6.79101562 90.19091797 C-6.79437424 89.24774216 -6.79773285 88.30456635 -6.80119324 87.33280945 C-6.81071978 84.20411882 -6.81264709 81.07548159 -6.8137207 77.94677734 C-6.8169317 75.77966286 -6.82029564 73.61254859 -6.82380676 71.44543457 C-6.82980202 66.89916481 -6.83164622 62.35291407 -6.83105469 57.80664062 C-6.83095295 51.96866182 -6.84461535 46.13080432 -6.8618269 40.29285431 C-6.87292021 35.8165836 -6.87497473 31.3403425 -6.87444496 26.86405945 C-6.87562872 24.71098919 -6.88007251 22.55791825 -6.88777733 20.40486145 C-6.89752509 17.39986553 -6.89472009 14.39513652 -6.88867188 11.39013672 C-6.89429138 10.49344772 -6.89991089 9.59675873 -6.90570068 8.67289734 C-6.87354735 2.41750971 -6.52015378 0.05841305 0 0 Z M-1.64575195 5.29052734 C-1.64575195 35.32052734 -1.64575195 65.35052734 -1.64575195 96.29052734 C17.82424805 96.29052734 37.29424805 96.29052734 57.35424805 96.29052734 C57.35424805 71.87052734 57.35424805 47.45052734 57.35424805 22.29052734 C52.40424805 21.96052734 47.45424805 21.63052734 42.35424805 21.29052734 C42.02424805 16.01052734 41.69424805 10.73052734 41.35424805 5.29052734 C27.16424805 5.29052734 12.97424805 5.29052734 -1.64575195 5.29052734 Z " fill="#212121" transform="translate(134.645751953125,52.70947265625)"/>
<path d="M0 0 C2 3 2 3 1.625 6.1875 C1.315625 7.5796875 1.315625 7.5796875 1 9 C0.34 9 -0.32 9 -1 9 C-0.01 10.485 -0.01 10.485 1 12 C3.30811683 12.21265181 3.30811683 12.21265181 5.875 11.9375 C10.68481391 11.81238923 10.68481391 11.81238923 13.625 13.5625 C15.54211763 16.96102671 15.54861638 19.15968535 15 23 C13.07017583 25.71604883 11.65799225 26.74692606 8.5625 27.9375 C5.08488548 28.02231987 3.68638351 27.19152339 1 25 C-2.14181818 20.07781818 -2.14181818 20.07781818 -1.6875 16.625 C-1.3471875 15.820625 -1.3471875 15.820625 -1 15 C-2.98 15 -4.96 15 -7 15 C-7 16.65 -7 18.3 -7 20 C-7.66 20 -8.32 20 -9 20 C-9.1546875 20.8971875 -9.1546875 20.8971875 -9.3125 21.8125 C-10.14489837 24.46104026 -10.67954185 25.4530279 -13 27 C-16.90533049 27.49704206 -19.08182112 27.62822766 -22.375 25.375 C-24.39994536 22.41546447 -25 20.5948199 -25 17 C-23.5 14.1875 -23.5 14.1875 -21 12 C-17.06492751 11.01623188 -13.85810114 10.61108359 -10 12 C-10 9.64500383 -10.04358604 7.28809476 -10.1875 4.9375 C-10 2 -10 2 -8.9375 0.0625 C-5.78433176 -1.66665678 -3.37491745 -0.8590699 0 0 Z " fill="#F9F9F9" transform="translate(46,32)"/>
<path d="M0 0 C4.13276869 -0.49642867 5.7099273 -0.19761644 9.2109375 2.1875 C10.27861245 3.11018206 11.33318363 4.04821714 12.375 5 C12.92027344 5.47695312 13.46554688 5.95390625 14.02734375 6.4453125 C15.36317833 7.61709722 16.6832407 8.80682005 18 10 C17.72034188 13.4988338 17.14062273 14.84931567 14.70703125 17.45703125 C13.75183594 18.23433594 12.79664063 19.01164062 11.8125 19.8125 C10.87019531 20.60269531 9.92789063 21.39289063 8.95703125 22.20703125 C5.6336758 24.22211731 3.81433002 24.37860757 0 24 C-0.75 22.25 -0.75 22.25 -1 20 C0.32 18.68 1.64 17.36 3 16 C-4.92 15.67 -12.84 15.34 -21 15 C-21.33 13.35 -21.66 11.7 -22 10 C-20.28556781 8.28556781 -17.99554759 8.76947033 -15.65234375 8.68359375 C-14.03295898 8.62075195 -14.03295898 8.62075195 -12.38085938 8.55664062 C-11.24455078 8.51732422 -10.10824219 8.47800781 -8.9375 8.4375 C-7.79732422 8.39431641 -6.65714844 8.35113281 -5.48242188 8.30664062 C-2.65507805 8.20017161 0.17235738 8.09815793 3 8 C2.33484375 7.38640625 1.6696875 6.7728125 0.984375 6.140625 C0.32953125 5.43421875 -0.3253125 4.7278125 -1 4 C-0.75 1.75 -0.75 1.75 0 0 Z " fill="#111111" transform="translate(103,92)"/>
<path d="M0 0 C3.38640162 2.15498285 5.71637257 4.1491177 7 8 C7.125 10.75 7.125 10.75 7 13 C7.886875 13.103125 8.77375 13.20625 9.6875 13.3125 C13.30658492 14.06363083 15.20011378 14.57847679 18 17 C20.03350939 20.60452386 21.21040052 24.06567265 20.7578125 28.2265625 C19.57674368 32.11971528 18.01816391 34.38311801 14.5625 36.5625 C11 38 11 38 8.5625 37.75 C8.046875 37.5025 7.53125 37.255 7 37 C7.66 36.67 8.32 36.34 9 36 C9.33 35.01 9.66 34.02 10 33 C11.31647119 32.30062468 12.65022151 31.63270867 14 31 C15.52491998 27.95016004 15.23562548 25.3576631 15 22 C13.8800291 20.1869745 13.8800291 20.1869745 12 19 C9.48710325 18.63786432 9.48710325 18.63786432 6.8125 18.8125 C5.91144531 18.83957031 5.01039062 18.86664063 4.08203125 18.89453125 C3.05142578 18.94673828 3.05142578 18.94673828 2 19 C1.34 17.68 0.68 16.36 0 15 C0.66 15 1.32 15 2 15 C2.32235558 10.89354452 2.32235558 10.89354452 0.9375 7.125 C-2.00227124 5.41803605 -4.67870803 5.81200234 -8 6 C-8 7.2375 -8 8.475 -8 9.75 C-8 12.5 -8 15.25 -8 18 C-11 19 -11 19 -14.375 18.25 C-18.16117827 17.56069534 -18.16117827 17.56069534 -20.8125 20.4375 C-21.534375 21.283125 -22.25625 22.12875 -23 23 C-23.66 23 -24.32 23 -25 23 C-25.66 24.98 -26.32 26.96 -27 29 C-27.33 29 -27.66 29 -28 29 C-28.66964286 21.23214286 -28.66964286 21.23214286 -25.75 17.625 C-22.45738814 14.48205232 -20.79407407 13.08154882 -16.25 12.875 C-15.5075 12.91625 -14.765 12.9575 -14 13 C-13.9071875 11.4221875 -13.9071875 11.4221875 -13.8125 9.8125 C-12.85862552 5.33662744 -11.46953013 3.87717133 -8 1 C-5.14675563 -0.42662219 -3.16545451 -0.31033868 0 0 Z " fill="#171717" transform="translate(45,26)"/>
<path d="M0 0 C0.77943466 0.00222061 1.55886932 0.00444122 2.36192322 0.00672913 C3.68317955 0.00684242 3.68317955 0.00684242 5.03112793 0.00695801 C5.98841293 0.01211929 6.94569794 0.01728058 7.93199158 0.02259827 C9.39480812 0.02472069 9.39480812 0.02472069 10.88717651 0.02688599 C14.01542675 0.03250319 17.14360656 0.04505859 20.27183533 0.05775452 C22.38706867 0.0627673 24.50230313 0.06733059 26.61753845 0.07142639 C31.81482829 0.0824782 37.01207678 0.09923305 42.20933533 0.12025452 C42.77183533 2.05775452 42.77183533 2.05775452 43.20933533 4.12025452 C42.20933533 5.12025452 42.20933533 5.12025452 40.41867065 5.24050903 C39.63923599 5.23828842 38.85980133 5.23606781 38.05674744 5.23377991 C37.17590988 5.23370438 36.29507233 5.23362885 35.38754272 5.23355103 C34.43025772 5.22838974 33.47297272 5.22322845 32.48667908 5.21791077 C31.51146805 5.21649582 30.53625702 5.21508087 29.53149414 5.21362305 C26.4032439 5.20800584 23.27506409 5.19545044 20.14683533 5.18275452 C18.03160198 5.17774173 15.91636752 5.17317844 13.8011322 5.16908264 C8.60384237 5.15803083 3.40659388 5.14127598 -1.79066467 5.12025452 C-2.35316467 3.18275452 -2.35316467 3.18275452 -2.79066467 1.12025452 C-1.79066467 0.12025452 -1.79066467 0.12025452 0 0 Z " fill="#070707" transform="translate(141.79066467285156,123.87974548339844)"/>
<path d="M0 0 C0.77943466 0.00222061 1.55886932 0.00444122 2.36192322 0.00672913 C3.68317955 0.00684242 3.68317955 0.00684242 5.03112793 0.00695801 C5.98841293 0.01211929 6.94569794 0.01728058 7.93199158 0.02259827 C9.39480812 0.02472069 9.39480812 0.02472069 10.88717651 0.02688599 C14.01542675 0.03250319 17.14360656 0.04505859 20.27183533 0.05775452 C22.38706867 0.0627673 24.50230313 0.06733059 26.61753845 0.07142639 C31.81482829 0.0824782 37.01207678 0.09923305 42.20933533 0.12025452 C42.77183533 2.05775452 42.77183533 2.05775452 43.20933533 4.12025452 C42.20933533 5.12025452 42.20933533 5.12025452 40.41867065 5.24050903 C39.63923599 5.23828842 38.85980133 5.23606781 38.05674744 5.23377991 C37.17590988 5.23370438 36.29507233 5.23362885 35.38754272 5.23355103 C34.43025772 5.22838974 33.47297272 5.22322845 32.48667908 5.21791077 C31.51146805 5.21649582 30.53625702 5.21508087 29.53149414 5.21362305 C26.4032439 5.20800584 23.27506409 5.19545044 20.14683533 5.18275452 C18.03160198 5.17774173 15.91636752 5.17317844 13.8011322 5.16908264 C8.60384237 5.15803083 3.40659388 5.14127598 -1.79066467 5.12025452 C-2.35316467 3.18275452 -2.35316467 3.18275452 -2.79066467 1.12025452 C-1.79066467 0.12025452 -1.79066467 0.12025452 0 0 Z " fill="#131313" transform="translate(141.79066467285156,104.87974548339844)"/>
<path d="M0 0 C0.77943466 0.00222061 1.55886932 0.00444122 2.36192322 0.00672913 C3.68317955 0.00684242 3.68317955 0.00684242 5.03112793 0.00695801 C5.98841293 0.01211929 6.94569794 0.01728058 7.93199158 0.02259827 C9.39480812 0.02472069 9.39480812 0.02472069 10.88717651 0.02688599 C14.01542675 0.03250319 17.14360656 0.04505859 20.27183533 0.05775452 C22.38706867 0.0627673 24.50230313 0.06733059 26.61753845 0.07142639 C31.81482829 0.0824782 37.01207678 0.09923305 42.20933533 0.12025452 C42.77183533 2.05775452 42.77183533 2.05775452 43.20933533 4.12025452 C42.20933533 5.12025452 42.20933533 5.12025452 40.41867065 5.24050903 C39.63923599 5.23828842 38.85980133 5.23606781 38.05674744 5.23377991 C37.17590988 5.23370438 36.29507233 5.23362885 35.38754272 5.23355103 C34.43025772 5.22838974 33.47297272 5.22322845 32.48667908 5.21791077 C31.51146805 5.21649582 30.53625702 5.21508087 29.53149414 5.21362305 C26.4032439 5.20800584 23.27506409 5.19545044 20.14683533 5.18275452 C18.03160198 5.17774173 15.91636752 5.17317844 13.8011322 5.16908264 C8.60384237 5.15803083 3.40659388 5.14127598 -1.79066467 5.12025452 C-2.35316467 3.18275452 -2.35316467 3.18275452 -2.79066467 1.12025452 C-1.79066467 0.12025452 -1.79066467 0.12025452 0 0 Z " fill="#0E0E0E" transform="translate(141.79066467285156,85.87974548339844)"/>
<path d="M0 0 C15.18 0 30.36 0 46 0 C46 1.32 46 2.64 46 4 C30.82 4 15.64 4 0 4 C0 2.68 0 1.36 0 0 Z " fill="#010101" transform="translate(139,134)"/>
<path d="M0 0 C15.18 0 30.36 0 46 0 C46 1.32 46 2.64 46 4 C30.82 4 15.64 4 0 4 C0 2.68 0 1.36 0 0 Z " fill="#010101" transform="translate(139,115)"/>
<path d="M0 0 C15.18 0 30.36 0 46 0 C46 1.32 46 2.64 46 4 C30.82 4 15.64 4 0 4 C0 2.68 0 1.36 0 0 Z " fill="#010101" transform="translate(139,96)"/>
<path d="M0 0 C0.99 0.33 1.98 0.66 3 1 C3.84375 2.7421875 3.84375 2.7421875 4.5 4.875 C5.47901606 8.03349229 6.50915103 9.79975007 9 12 C8.67 12.66 8.34 13.32 8 14 C5.44609016 13.63515574 3.9108255 12.94055033 1.75 11.5 C-0.8357956 7.80600629 -0.33648968 4.37436583 0 0 Z " fill="#090909" transform="translate(18,48)"/>
<path d="M0 0 C0.33 0 0.66 0 1 0 C1 2.31 1 4.62 1 7 C1.66 7.33 2.32 7.66 3 8 C0.11593757 11.40843742 -1.3708265 12.86591384 -5.8125 13.8125 C-7.3903125 13.9053125 -7.3903125 13.9053125 -9 14 C-6.47433265 9.20123203 -6.47433265 9.20123203 -3.9375 8.125 C-1.56905939 7.03210362 -1.56905939 7.03210362 -0.75 3.375 C-0.37875 1.704375 -0.37875 1.704375 0 0 Z " fill="#1E1E1E" transform="translate(61,50)"/>
<path d="M0 0 C0.66 0 1.32 0 2 0 C3.0326802 2.78823655 3.04509293 3.8677274 2.0625 6.75 C1.711875 7.4925 1.36125 8.235 1 9 C0.34 9 -0.32 9 -1 9 C-1.09765625 2.84765625 -1.09765625 2.84765625 -1 1 C-0.67 0.67 -0.34 0.34 0 0 Z " fill="#0C0C0C" transform="translate(63,48)"/>
<path d="M0 0 C1.65 0.33 3.3 0.66 5 1 C4.67 1.66 4.34 2.32 4 3 C1.67843403 3.40729228 -0.6568787 3.74438677 -3 4 C-2.01 2.68 -1.02 1.36 0 0 Z " fill="#373737" transform="translate(55,60)"/>
</svg>
