<?xml version="1.0" encoding="UTF-8" standalone="no"?>
<svg
   xmlns:dc="http://purl.org/dc/elements/1.1/"
   xmlns:cc="http://creativecommons.org/ns#"
   xmlns:rdf="http://www.w3.org/1999/02/22-rdf-syntax-ns#"
   xmlns:svg="http://www.w3.org/2000/svg"
   xmlns="http://www.w3.org/2000/svg"
   xmlns:sodipodi="http://sodipodi.sourceforge.net/DTD/sodipodi-0.dtd"
   xmlns:inkscape="http://www.inkscape.org/namespaces/inkscape"
   width="48"
   height="48"
   id="svg2"
   version="1.1"
   inkscape:version="0.91 r13725"
   sodipodi:docname="spacy.svg">
  <metadata
     id="metadata16">
    <rdf:RDF>
      <cc:Work
         rdf:about="">
        <dc:format>image/svg+xml</dc:format>
        <dc:type
           rdf:resource="http://purl.org/dc/dcmitype/StillImage" />
        <dc:title>Category Icon</dc:title>
      </cc:Work>
    </rdf:RDF>
  </metadata>
  <defs
     id="defs14" />
  <sodipodi:namedview
     pagecolor="#ffffff"
     bordercolor="#666666"
     borderopacity="1"
     objecttolerance="10"
     gridtolerance="10"
     guidetolerance="10"
     inkscape:pageopacity="0"
     inkscape:pageshadow="2"
     inkscape:window-width="1538"
     inkscape:window-height="886"
     id="namedview12"
     showgrid="false"
     inkscape:zoom="9.5599082"
     inkscape:cx="6.3660107"
     inkscape:cy="22.597656"
     inkscape:window-x="0"
     inkscape:window-y="0"
     inkscape:window-maximized="0"
     inkscape:current-layer="svg2" />
  <!-- Created with SVG-edit - http://svg-edit.googlecode.com/ -->
  <title
     id="title4">Category Icon</title>
  <text
     xml:space="preserve"
     style="font-style:normal;font-weight:normal;font-size:11px;line-height:125%;font-family:Sans;letter-spacing:0px;word-spacing:0px;fill:#000000;fill-opacity:1;stroke:none;stroke-width:1px;stroke-linecap:butt;stroke-linejoin:miter;stroke-opacity:1"
     x="-30.02121"
     y="15.154496"
     id="text4146"
     sodipodi:linespacing="125%"><tspan
       sodipodi:role="line"
       id="tspan4148"
       x="-30.02121"
       y="15.154496"></tspan></text>
  <path
     id="path4151"
     d="M 6.0375351,22.429201 C 4.938792,22.29898 4.8574053,20.825845 3.4493812,20.956068 c -0.6836597,0 -1.3184981,0.28486 -1.3184981,0.911552 0,0.944107 1.4568556,1.033632 2.3358543,1.269665 1.4975496,0.455777 2.9462665,0.765047 2.9462665,2.392826 0,2.067266 -1.6196291,2.78348 -3.7601557,2.78348 -1.7905414,0 -3.60550962,-0.634828 -3.60550962,-2.278873 0,-0.455776 0.43949936,-0.813889 0.86272133,-0.813889 0.53716349,0 0.72435309,0.227883 0.91155349,0.602272 0.4150833,0.732503 0.8789879,1.12317 2.0347124,1.12317 0.7324918,0 1.4812722,-0.276725 1.4812722,-0.911553 0,-0.903415 -0.9196927,-1.098754 -1.8719394,-1.318498 C 1.78092,24.244166 0.33220305,23.999994 0.16128007,22.128063 -0.01777084,18.93763 6.63168,18.815547 7.0141979,21.615315 7.0055979,22.119923 6.5340052,22.4292 6.0375351,22.4292 Z m 7.9109769,-2.799767 c 2.335844,0 3.66248,1.953325 3.66248,4.362422 0,2.417241 -1.285932,4.362428 -3.66248,4.362428 -1.318498,0 -2.140526,-0.561579 -2.734661,-1.42429 l 0,3.190426 c 0,0.960386 -0.30928,1.424301 -1.009217,1.424301 -0.8545822,0 -1.0092171,-0.545302 -1.0092171,-1.424301 l 0,-9.278297 c 0,-0.756913 0.3174192,-1.220828 1.0092171,-1.220828 0.651105,0 1.009217,0.512748 1.009217,1.220828 l 0,0.260443 c 0.659245,-0.830162 1.416163,-1.473132 2.734661,-1.473132 z m -0.553441,7.064528 c 1.367319,0 1.977742,-1.261528 1.977742,-2.734659 0,-1.440579 -0.618561,-2.734653 -1.977742,-2.734653 -1.424301,0 -2.083555,1.171996 -2.083555,2.734653 0,1.521975 0.667392,2.734659 2.083555,2.734659 z m 5.802996,-4.785649 c 0,-1.676604 1.928909,-2.278879 3.800848,-2.278879 2.628857,0 3.711324,0.765051 3.711324,3.304372 l 0,2.441657 c 0,0.577857 0.358112,1.733582 0.358112,2.083556 0,0.529025 -0.488331,0.86271 -1.009217,0.86271 -0.577868,0 -1.009229,-0.683659 -1.318498,-1.17199 -0.854583,0.683659 -1.757998,1.17199 -3.141606,1.17199 -1.530104,0 -2.734649,-0.903403 -2.734649,-2.392825 0,-1.318487 0.944108,-2.075406 2.083544,-2.335842 0,0.0086 3.662492,-0.862723 3.662492,-0.87086 0,-1.123165 -0.398806,-1.619635 -1.578947,-1.619635 -1.041772,0 -1.570797,0.284861 -1.977742,0.911553 -0.325547,0.47205 -0.284853,0.756914 -0.911553,0.756914 -0.504609,-0.0086 -0.944108,-0.349972 -0.944108,-0.86272 z m 3.125327,5.03796 c 1.603352,0 2.278884,-0.846444 2.278884,-2.531195 l 0,-0.358101 c -0.431361,0.146496 -2.173081,0.577856 -2.645135,0.651105 -0.504609,0.09762 -1.009218,0.472053 -1.009218,1.066188 0.01623,0.651104 0.68366,1.172001 1.375469,1.172001 z M 34.100319,16.44714 c 2.262606,0 4.712403,1.35105 4.712403,3.499709 0,0.553443 -0.415085,1.009219 -0.960386,1.009219 -0.740641,0 -0.846445,-0.398804 -1.172002,-0.960386 -0.545302,-1.001078 -1.188268,-1.668465 -2.588153,-1.668465 -2.164932,-0.01627 -3.133456,1.839381 -3.133456,4.150813 0,2.327716 0.80574,4.004327 3.04393,4.004327 1.489411,0 2.311439,-0.862721 2.734661,-1.977742 0.170911,-0.512758 0.480192,-1.009228 1.123159,-1.009228 0.504608,0 1.009217,0.512747 1.009217,1.066199 0,2.278873 -2.327715,3.857819 -4.720541,3.857819 -2.620708,0 -4.101979,-1.106892 -4.915869,-2.946265 -0.398806,-0.878999 -0.651104,-1.790553 -0.651104,-3.043939 -0.01623,-3.532265 2.042851,-5.982061 5.518141,-5.982061 l 0,0 z m 12.940789,3.182294 c 0.577856,0 0.911553,0.374387 0.911553,0.960383 0,0.236028 -0.1872,0.708083 -0.260449,0.960386 l -2.783492,7.316829 c -0.61855,1.587085 -1.082466,2.685828 -3.190426,2.685828 -1.001079,0 -1.871939,-0.08955 -1.871939,-0.960386 0,-0.504608 0.382529,-0.756918 0.911553,-0.756918 0.09762,0 0.260438,0.04881 0.358113,0.04881 0.154635,0 0.260437,0.04881 0.358102,0.04881 1.05806,0 1.204556,-1.082476 1.578946,-1.831246 l -2.685828,-6.649444 c -0.154635,-0.358108 -0.260438,-0.602275 -0.260438,-0.813886 0,-0.585996 0.455766,-1.009217 1.066188,-1.009217 0.68366,0 0.952247,0.537165 1.123159,1.123162 l 1.774275,5.273984 1.774264,-4.87518 c 0.268587,-0.756914 0.293004,-1.521966 1.196419,-1.521966 z"
     inkscape:connector-curvature="0"
     style="fill:#767676;fill-opacity:1" />
</svg>
