<?xml version="1.0" encoding="UTF-8" standalone="no"?>
<svg
   xmlns:dc="http://purl.org/dc/elements/1.1/"
   xmlns:cc="http://creativecommons.org/ns#"
   xmlns:rdf="http://www.w3.org/1999/02/22-rdf-syntax-ns#"
   xmlns:svg="http://www.w3.org/2000/svg"
   xmlns="http://www.w3.org/2000/svg"
   height="216.24535"
   width="174.38158"
   id="svg367"
   viewBox="0 0 174.38157 216.24534"
   version="1.1"
   stroke-miterlimit="1.4142"
   stroke-linejoin="round"
   fill-rule="evenodd"
   clip-rule="evenodd">
  <metadata
     id="metadata371">
    <rdf:RDF>
      <cc:Work
         rdf:about="">
        <dc:format>image/svg+xml</dc:format>
        <dc:type
           rdf:resource="http://purl.org/dc/dcmitype/StillImage" />
        <dc:title></dc:title>
      </cc:Work>
    </rdf:RDF>
  </metadata>
  <defs
     id="defs365">
    <linearGradient
       gradientUnits="userSpaceOnUse"
       gradientTransform="matrix(278.39,273.89,-273.89,278.39,1214.6,446.11)"
       x2="1"
       id="a">
      <stop
         id="stop360"
         offset="0"
         stop-opacity=".61569"
         stop-color="#212121" />
      <stop
         id="stop362"
         offset="1"
         stop-opacity="0"
         stop-color="#4d4d4d" />
    </linearGradient>
    <linearGradient
       id="a-3"
       x2="1"
       gradientTransform="matrix(278.39,273.89,-273.89,278.39,1214.6,446.11)"
       gradientUnits="userSpaceOnUse">
      <stop
         stop-color="#212121"
         stop-opacity=".61569"
         offset="0"
         id="stop360-6" />
      <stop
         stop-color="#4d4d4d"
         stop-opacity="0"
         offset="1"
         id="stop362-7" />
    </linearGradient>
    <linearGradient
       id="linearGradient1212"
       x2="1"
       gradientTransform="matrix(278.39,273.89,-273.89,278.39,1214.6,446.11)"
       gradientUnits="userSpaceOnUse">
      <stop
         stop-color="#212121"
         stop-opacity=".61569"
         offset="0"
         id="stop1208" />
      <stop
         stop-color="#4d4d4d"
         stop-opacity="0"
         offset="1"
         id="stop1210" />
    </linearGradient>
    <linearGradient
       id="linearGradient1218"
       x2="1"
       gradientTransform="matrix(278.39,273.89,-273.89,278.39,1214.6,446.11)"
       gradientUnits="userSpaceOnUse">
      <stop
         stop-color="#212121"
         stop-opacity=".61569"
         offset="0"
         id="stop1214" />
      <stop
         stop-color="#4d4d4d"
         stop-opacity="0"
         offset="1"
         id="stop1216" />
    </linearGradient>
    <linearGradient
       id="linearGradient1224"
       x2="1"
       gradientTransform="matrix(278.39,273.89,-273.89,278.39,1214.6,446.11)"
       gradientUnits="userSpaceOnUse">
      <stop
         stop-color="#212121"
         stop-opacity=".61569"
         offset="0"
         id="stop1220" />
      <stop
         stop-color="#4d4d4d"
         stop-opacity="0"
         offset="1"
         id="stop1222" />
    </linearGradient>
    <linearGradient
       id="linearGradient1230"
       x2="1"
       gradientTransform="matrix(278.39,273.89,-273.89,278.39,1214.6,446.11)"
       gradientUnits="userSpaceOnUse">
      <stop
         stop-color="#212121"
         stop-opacity=".61569"
         offset="0"
         id="stop1226" />
      <stop
         stop-color="#4d4d4d"
         stop-opacity="0"
         offset="1"
         id="stop1228" />
    </linearGradient>
    <linearGradient
       id="linearGradient1236"
       x2="1"
       gradientTransform="matrix(278.39,273.89,-273.89,278.39,1214.6,446.11)"
       gradientUnits="userSpaceOnUse">
      <stop
         stop-color="#212121"
         stop-opacity=".61569"
         offset="0"
         id="stop1232" />
      <stop
         stop-color="#4d4d4d"
         stop-opacity="0"
         offset="1"
         id="stop1234" />
    </linearGradient>
    <linearGradient
       id="linearGradient1242"
       x2="1"
       gradientTransform="matrix(278.39,273.89,-273.89,278.39,1214.6,446.11)"
       gradientUnits="userSpaceOnUse">
      <stop
         stop-color="#212121"
         stop-opacity=".61569"
         offset="0"
         id="stop1238" />
      <stop
         stop-color="#4d4d4d"
         stop-opacity="0"
         offset="1"
         id="stop1240" />
    </linearGradient>
    <linearGradient
       id="linearGradient1248"
       x2="1"
       gradientTransform="matrix(278.39,273.89,-273.89,278.39,1214.6,446.11)"
       gradientUnits="userSpaceOnUse">
      <stop
         stop-color="#212121"
         stop-opacity=".61569"
         offset="0"
         id="stop1244" />
      <stop
         stop-color="#4d4d4d"
         stop-opacity="0"
         offset="1"
         id="stop1246" />
    </linearGradient>
    <linearGradient
       id="linearGradient1254"
       x2="1"
       gradientTransform="matrix(278.39,273.89,-273.89,278.39,1214.6,446.11)"
       gradientUnits="userSpaceOnUse">
      <stop
         stop-color="#212121"
         stop-opacity=".61569"
         offset="0"
         id="stop1250" />
      <stop
         stop-color="#4d4d4d"
         stop-opacity="0"
         offset="1"
         id="stop1252" />
    </linearGradient>
    <linearGradient
       id="linearGradient1260"
       x2="1"
       gradientTransform="matrix(278.39,273.89,-273.89,278.39,1214.6,446.11)"
       gradientUnits="userSpaceOnUse">
      <stop
         stop-color="#212121"
         stop-opacity=".61569"
         offset="0"
         id="stop1256" />
      <stop
         stop-color="#4d4d4d"
         stop-opacity="0"
         offset="1"
         id="stop1258" />
    </linearGradient>
    <linearGradient
       id="linearGradient1266"
       x2="1"
       gradientTransform="matrix(278.39,273.89,-273.89,278.39,1214.6,446.11)"
       gradientUnits="userSpaceOnUse">
      <stop
         stop-color="#212121"
         stop-opacity=".61569"
         offset="0"
         id="stop1262" />
      <stop
         stop-color="#4d4d4d"
         stop-opacity="0"
         offset="1"
         id="stop1264" />
    </linearGradient>
    <linearGradient
       id="linearGradient1272"
       x2="1"
       gradientTransform="matrix(278.39,273.89,-273.89,278.39,1214.6,446.11)"
       gradientUnits="userSpaceOnUse">
      <stop
         stop-color="#212121"
         stop-opacity=".61569"
         offset="0"
         id="stop1268" />
      <stop
         stop-color="#4d4d4d"
         stop-opacity="0"
         offset="1"
         id="stop1270" />
    </linearGradient>
    <linearGradient
       gradientUnits="userSpaceOnUse"
       gradientTransform="matrix(278.39,273.89,-273.89,278.39,1214.6,446.11)"
       x2="1"
       id="a-3-3">
      <stop
         id="stop360-6-5"
         offset="0"
         stop-opacity=".61569"
         stop-color="#212121" />
      <stop
         id="stop362-7-6"
         offset="1"
         stop-opacity="0"
         stop-color="#4d4d4d" />
    </linearGradient>
    <filter
       id="filter2475"
       style="color-interpolation-filters:sRGB">
      <feColorMatrix
         id="feColorMatrix2473"
         values="0.783215 0.72 0.072 0 0 0.783215 0.72 0.072 0 0 0.783215 0.72 0.072 0 0 0 0 0 1 0 " />
    </filter>
  </defs>
  <g
     transform="translate(-109.04572,-196.47133)"
     id="layer2">
    <path
       transform="matrix(2.2301201,0,0,2.2301201,-220.03649,-376.55489)"
       id="path64-0"
       fill="#ffffff"
       d="m 222.0234,353.98028 h -70.6969 c -0.11808,-0.005 -0.23615,-0.005 -0.35375,-0.0163 -0.35279,-0.0326 -0.70078,-0.11472 -1.03101,-0.24239 -0.55102,-0.2136 -1.04972,-0.55535 -1.44811,-0.99213 -0.39791,-0.43679 -0.69214,-0.96477 -0.85389,-1.53307 -0.0648,-0.22752 -0.10848,-0.46031 -0.13008,-0.6955 -0.011,-0.1176 -0.011,-0.23567 -0.0163,-0.35375 v -89.33472 c 0.005,-0.11808 0.005,-0.23615 0.0163,-0.35375 0.0326,-0.35279 0.11472,-0.70078 0.24239,-1.031 0.2136,-0.55103 0.55535,-1.04973 0.99213,-1.44812 0.43679,-0.39791 0.96477,-0.69214 1.53355,-0.85389 0.22703,-0.0648 0.45983,-0.10848 0.69502,-0.13008 0.1176,-0.011 0.23567,-0.011 0.35375,-0.0163 h 70.6969 c 0.11762,0.005 0.23569,0.0106 0.35328,0.0163 0.11712,0.0163 0.23472,0.0274 0.35086,0.049 0.23232,0.0432 0.45983,0.108 0.68015,0.19343 0.44062,0.17088 0.84861,0.42335 1.19804,0.74158 0.43678,0.39839 0.77854,0.89709 0.99164,1.44812 0.12817,0.33022 0.20975,0.67821 0.24287,1.031 0.0106,0.1176 0.0106,0.23567 0.0163,0.35375 v 89.33471 c -0.006,0.11808 -0.006,0.23615 -0.0163,0.35375 -0.0331,0.35279 -0.1147,0.70078 -0.24287,1.03101 -0.2131,0.55102 -0.55486,1.04972 -0.99164,1.44811 -0.43678,0.39791 -0.96525,0.69214 -1.53356,0.85389 -0.22703,0.0648 -0.45982,0.10848 -0.69549,0.13008 -0.11712,0.011 -0.23566,0.011 -0.35328,0.0163 z m -3.83362,-89.33471 h -63.03156 v 81.66935 h 63.03156 z m -7.03129,66.13226 v 5.35086 h -50.92156 v -5.35086 z m -50.92156,-11.19756 h 50.92156 v 5.35087 h -50.92156 z m 0,-11.19804 h 50.92156 v 5.35135 h -50.92156 z m 0,-11.19756 h 50.92156 v 5.35135 h -50.92156 z m 26.43899,-22.37639 h 24.48352 v 16.5297 h -24.48352 z m -26.43899,11.19756 h 20.26254 v 5.33214 h -20.26254 z m 0,-11.19756 h 20.26254 v 5.35135 h -20.26254 z"
       style="fill:#ff0000;stroke-width:0.479984;filter:url(#filter2475)" />
    <g
       id="g2795">
      <path
         style="fill:#b3b3b3;fill-opacity:1;stroke-width:17.3063;stroke-linejoin:round"
         d="M 112.06924,79.339989 V 61.0242 h 27.2829 27.28289 v 18.315789 18.31579 h -27.28289 -27.2829 z"
         id="path2696"
         transform="translate(84.167268,175.53022)" />
      <path
         style="fill:#b3b3b3;fill-opacity:1;stroke-width:17.3063;stroke-linejoin:round"
         d="M 112.06924,79.339989 V 61.0242 h 27.2829 27.28289 v 18.315789 18.31579 h -27.28289 -27.2829 z"
         id="path2698"
         transform="translate(84.167268,175.53022)" />
      <path
         style="fill:#b3b3b3;fill-opacity:1;stroke-width:17.3063;stroke-linejoin:round"
         d="m 31.221536,236.93312 c -2.075489,-0.4929 -4.302054,-2.3106 -5.368286,-4.38249 l -0.974798,-1.89422 V 129.13604 27.61567 l 0.974798,-1.894217 c 1.205232,-2.341994 3.311029,-3.868336 6.041099,-4.378762 2.948484,-0.551261 158.075531,-0.52734 160.649941,0.02477 2.449,0.525216 4.74575,2.198699 5.84682,4.260174 l 0.86892,1.626825 v 101.88158 c 0,98.73052 -0.022,101.92289 -0.7124,103.21711 -1.00085,1.87629 -2.09778,2.99642 -3.86655,3.94832 l -1.52631,0.82141 -80.32237,0.0581 c -44.177303,0.032 -80.902192,-0.0796 -81.610864,-0.24789 z m 151.345204,-107.70168 0.0962,-91.101977 h -70.4021 -70.402105 v 91.198387 91.19838 l 70.305925,-0.0964 70.30592,-0.0964 z"
         id="path2700"
         transform="translate(84.167268,175.53022)" />
      <path
         style="fill:#b3b3b3;fill-opacity:1;stroke-width:17.3063;stroke-linejoin:round"
         d="M 53.306083,66.747884 V 61.0242 h 22.513158 22.513158 v 5.723684 5.723684 H 75.819241 53.306083 Z"
         id="path2702"
         transform="translate(84.167268,175.53022)" />
      <path
         style="fill:#b3b3b3;fill-opacity:1;stroke-width:17.3063;stroke-linejoin:round"
         d="m 53.306083,91.741305 v -5.914474 h 22.513158 22.513158 v 5.914474 5.914474 H 75.819241 53.306083 Z"
         id="path2704"
         transform="translate(84.167268,175.53022)" />
      <path
         style="fill:#b3b3b3;fill-opacity:1;stroke-width:17.3063;stroke-linejoin:round"
         d="m 53.306083,116.54394 v -5.91448 h 56.664477 56.66447 v 5.91448 5.91447 H 109.97056 53.306083 Z"
         id="path2706"
         transform="translate(84.167268,175.53022)" />
      <path
         style="fill:#b3b3b3;fill-opacity:1;stroke-width:17.3063;stroke-linejoin:round"
         d="m 53.306083,141.53736 v -5.72369 h 56.664477 56.66447 v 5.72369 5.72368 H 109.97056 53.306083 Z"
         id="path2708"
         transform="translate(84.167268,175.53022)" />
      <path
         style="fill:#b3b3b3;fill-opacity:1;stroke-width:17.3063;stroke-linejoin:round"
         d="m 53.306083,166.53078 v -5.91447 h 56.664477 56.66447 v 5.91447 5.91447 H 109.97056 53.306083 Z"
         id="path2710"
         transform="translate(84.167268,175.53022)" />
      <path
         style="fill:#808080;fill-opacity:1;stroke-width:17.3063;stroke-linejoin:round"
         d="m 53.306083,191.5242 v -5.72368 h 56.664477 56.66447 v 5.72368 5.72368 H 109.97056 53.306083 Z"
         id="path2712"
         transform="translate(84.167268,175.53022)" />
      <path
         style="fill:#808080;fill-opacity:1;stroke-width:17.3063;stroke-linejoin:round"
         d="m 53.306083,166.53078 v -5.91447 h 56.664477 56.66447 v 5.91447 5.91447 H 109.97056 53.306083 Z"
         id="path2714"
         transform="translate(84.167268,175.53022)" />
      <path
         style="fill:#808080;fill-opacity:1;stroke-width:17.3063;stroke-linejoin:round"
         d="m 53.306083,141.53736 v -5.72369 h 56.664477 56.66447 v 5.72369 5.72368 H 109.97056 53.306083 Z"
         id="path2716"
         transform="translate(84.167268,175.53022)" />
      <path
         style="fill:#808080;fill-opacity:1;stroke-width:17.3063;stroke-linejoin:round"
         d="m 53.306083,116.54394 v -5.91448 h 56.664477 56.66447 v 5.91448 5.91447 H 109.97056 53.306083 Z"
         id="path2718"
         transform="translate(84.167268,175.53022)" />
      <path
         style="fill:#808080;fill-opacity:1;stroke-width:17.3063;stroke-linejoin:round"
         d="m 53.306083,91.741305 v -5.914474 h 22.513158 22.513158 v 5.914474 5.914474 H 75.819241 53.306083 Z"
         id="path2720"
         transform="translate(84.167268,175.53022)" />
      <path
         style="fill:#808080;fill-opacity:1;stroke-width:17.3063;stroke-linejoin:round"
         d="M 53.306083,66.747884 V 61.0242 h 22.513158 22.513158 v 5.723684 5.723684 H 75.819241 53.306083 Z"
         id="path2722"
         transform="translate(84.167268,175.53022)" />
      <path
         style="fill:#4d4d4d;fill-opacity:1;stroke-width:17.3063;stroke-linejoin:round"
         d="m 42.202799,236.94804 c -9.706392,-0.16643 -12.198717,-0.31461 -12.782895,-0.76002 -1.822808,-1.38981 -2.95035,-2.60843 -3.622451,-3.91507 -0.711201,-1.38265 -0.728212,-3.79182 -0.728212,-103.13691 0,-99.939046 0.01298,-101.746627 0.740678,-103.173038 0.935237,-1.833216 2.962939,-3.627675 4.854884,-4.296435 1.214031,-0.429133 15.097119,-0.517367 81.404437,-0.517367 76.10876,0 80.02623,0.03297 81.72318,0.687825 1.92503,0.742867 4.72765,3.454086 5.0837,4.917911 0.11787,0.484608 0.16662,46.826226 0.10832,102.981374 l -0.10599,102.10027 -1.0408,1.57272 c -0.57243,0.86499 -1.86026,2.05441 -2.86184,2.64315 l -1.82104,1.07043 -69.44737,0.016 c -38.196053,0.009 -74.873123,-0.0771 -81.504601,-0.19079 z m 140.363941,-107.7166 0.0962,-91.101977 h -70.4021 -70.402105 v 91.198387 91.19838 l 70.305925,-0.0964 70.30592,-0.0964 z"
         id="path2724"
         transform="translate(84.167268,175.53022)" />
      <path
         style="fill:#4d4d4d;fill-opacity:1;stroke-width:17.3063;stroke-linejoin:round"
         d="m 53.306083,191.5242 v -5.72368 h 56.664477 56.66447 v 5.72368 5.72368 H 109.97056 53.306083 Z"
         id="path2734"
         transform="translate(84.167268,175.53022)" />
      <path
         style="fill:#4d4d4d;fill-opacity:1;stroke-width:17.3063;stroke-linejoin:round"
         d="m 53.306083,166.53078 v -5.91447 h 56.664477 56.66447 v 5.91447 5.91447 H 109.97056 53.306083 Z"
         id="path2736"
         transform="translate(84.167268,175.53022)" />
      <path
         style="fill:#4d4d4d;fill-opacity:1;stroke-width:17.3063;stroke-linejoin:round"
         d="m 53.306083,141.53736 v -5.72369 h 56.664477 56.66447 v 5.72369 5.72368 H 109.97056 53.306083 Z"
         id="path2738"
         transform="translate(84.167268,175.53022)" />
      <path
         style="fill:#4d4d4d;fill-opacity:1;stroke-width:17.3063;stroke-linejoin:round"
         d="m 53.306083,116.54394 v -5.91448 h 56.664477 56.66447 v 5.91448 5.91447 H 109.97056 53.306083 Z"
         id="path2740"
         transform="translate(84.167268,175.53022)" />
      <path
         style="fill:#4d4d4d;fill-opacity:1;stroke-width:17.3063;stroke-linejoin:round"
         d="m 53.306083,91.741305 v -5.914474 h 22.513158 22.513158 v 5.914474 5.914474 H 75.819241 53.306083 Z"
         id="path2742"
         transform="translate(84.167268,175.53022)" />
      <path
         style="fill:#666666;fill-opacity:1;stroke-width:17.3063;stroke-linejoin:round"
         d="M 53.306083,66.747884 V 61.0242 h 22.513158 22.513158 v 5.723684 5.723684 H 75.819241 53.306083 Z"
         id="path2744"
         transform="translate(84.167268,175.53022)" />
      <path
         style="fill:#666666;fill-opacity:1;stroke-width:17.3063;stroke-linejoin:round"
         d="m 34.718551,236.57872 -5.041481,-0.22254 -1.740633,-1.7083 c -1.046736,-1.0273 -1.922421,-2.31957 -2.196647,-3.24165 -0.348464,-1.17171 -0.458471,-25.15706 -0.466432,-101.69782 -0.0057,-55.09046 0.130238,-100.993469 0.302148,-102.006685 0.343934,-2.027092 2.150957,-4.385888 4.234796,-5.527886 1.089966,-0.597329 6.939802,-0.64306 82.258938,-0.64306 h 81.08553 l 1.39404,0.866884 c 0.76673,0.476787 2.01163,1.550472 2.76645,2.385968 l 1.3724,1.519083 V 129.07989 231.85706 l -1.12865,1.55806 c -0.62075,0.85693 -1.88074,1.99881 -2.79997,2.53751 l -1.67132,0.97946 -76.66385,-0.0654 c -42.165111,-0.036 -78.932505,-0.16557 -81.705319,-0.28796 z M 182.66135,129.32683 V 38.129463 H 112.26003 41.858715 v 91.197367 91.19737 h 70.401315 70.40132 z"
         id="path2746"
         transform="translate(84.167268,175.53022)" />
      <path
         style="fill:#666666;fill-opacity:1;stroke-width:17.3063;stroke-linejoin:round"
         d="m 53.306083,191.5242 v -5.72368 h 56.664477 56.66447 v 5.72368 5.72368 H 109.97056 53.306083 Z"
         id="path2748"
         transform="translate(84.167268,175.53022)" />
      <path
         style="fill:#666666;fill-opacity:1;stroke-width:17.3063;stroke-linejoin:round"
         d="m 53.306083,166.53078 v -5.91447 h 56.664477 56.66447 v 5.91447 5.91447 H 109.97056 53.306083 Z"
         id="path2750"
         transform="translate(84.167268,175.53022)" />
      <path
         style="fill:#666666;fill-opacity:1;stroke-width:17.3063;stroke-linejoin:round"
         d="m 53.306083,141.53736 v -5.72369 h 56.664477 56.66447 v 5.72369 5.72368 H 109.97056 53.306083 Z"
         id="path2752"
         transform="translate(84.167268,175.53022)" />
      <path
         style="fill:#666666;fill-opacity:1;stroke-width:17.3063;stroke-linejoin:round"
         d="m 53.306083,116.54394 v -5.91448 h 56.664477 56.66447 v 5.91448 5.91447 H 109.97056 53.306083 Z"
         id="path2754"
         transform="translate(84.167268,175.53022)" />
      <path
         style="fill:#666666;fill-opacity:1;stroke-width:17.3063;stroke-linejoin:round"
         d="m 53.306083,91.741305 v -5.914474 h 22.513158 22.513158 v 5.914474 5.914474 H 75.819241 53.306083 Z"
         id="path2756"
         transform="translate(84.167268,175.53022)" />
      <path
         style="fill:#666666;fill-opacity:1;stroke-width:17.3063;stroke-linejoin:round"
         d="M 53.306083,66.747884 V 61.0242 h 22.513158 22.513158 v 5.723684 5.723684 H 75.819241 53.306083 Z"
         id="path2758"
         transform="translate(84.167268,175.53022)" />
      <path
         style="fill:#666666;fill-opacity:1;stroke-width:17.3063;stroke-linejoin:round"
         d="m 218.31345,266.97372 c -1.30976,-0.28454 -2.55466,-0.62445 -2.76645,-0.75534 -0.21179,-0.13089 -0.38507,-1.34397 -0.38507,-2.69573 0,-2.15641 0.0885,-2.45774 0.72179,-2.45774 0.47048,0 0.81163,0.36536 0.97979,1.04934 0.70261,2.85769 2.55486,3.99598 6.50237,3.99598 4.32619,0 6.29605,-1.43146 6.29605,-4.5752 0,-2.45479 -0.98848,-3.21255 -6.34714,-4.86561 -2.49032,-0.76823 -5.18529,-1.82201 -5.98882,-2.34173 -2.54218,-1.64428 -3.34343,-5.33295 -1.68706,-7.76666 1.30955,-1.92414 2.57829,-2.67073 5.34351,-3.14439 2.0962,-0.35906 3.15648,-0.32107 6.22813,0.22319 2.03603,0.36075 3.84978,0.74734 4.03057,0.85907 0.18079,0.11173 0.32871,1.22328 0.32871,2.47011 0,2.16369 -0.0435,2.26695 -0.95395,2.26695 -0.60715,0 -0.95395,-0.21497 -0.95395,-0.59132 0,-1.17457 -1.13808,-2.75278 -2.42572,-3.36381 -1.68534,-0.79974 -5.63598,-0.81766 -7.2894,-0.0331 -1.38557,0.6575 -2.11382,1.91488 -2.11382,3.64965 0,2.47402 1.14838,3.28267 7.44078,5.23955 4.62221,1.43746 5.96991,2.22651 6.80357,3.98332 1.73852,3.66365 -0.11808,7.68824 -4.09096,8.86806 -2.31409,0.68721 -6.47133,0.68092 -9.67293,-0.0146 z"
         id="path2764" />
    </g>
  </g>
</svg>
