<?xml version="1.0" encoding="UTF-8" standalone="no"?>
<svg
   xmlns:dc="http://purl.org/dc/elements/1.1/"
   xmlns:cc="http://creativecommons.org/ns#"
   xmlns:rdf="http://www.w3.org/1999/02/22-rdf-syntax-ns#"
   xmlns:svg="http://www.w3.org/2000/svg"
   xmlns="http://www.w3.org/2000/svg"
   xmlns:sodipodi="http://sodipodi.sourceforge.net/DTD/sodipodi-0.dtd"
   xmlns:inkscape="http://www.inkscape.org/namespaces/inkscape"
   width="48"
   height="48"
   id="svg2"
   version="1.1"
   inkscape:version="0.91 r13725"
   sodipodi:docname="textTree.svg">
  <metadata
     id="metadata16">
    <rdf:RDF>
      <cc:Work
         rdf:about="">
        <dc:format>image/svg+xml</dc:format>
        <dc:type
           rdf:resource="http://purl.org/dc/dcmitype/StillImage" />
        <dc:title>Category Icon</dc:title>
      </cc:Work>
    </rdf:RDF>
  </metadata>
  <defs
     id="defs14">
    <inkscape:path-effect
       effect="spiro"
       id="path-effect6089"
       is_visible="true" />
    <inkscape:path-effect
       effect="spiro"
       id="path-effect6085"
       is_visible="true" />
    <inkscape:path-effect
       effect="spiro"
       id="path-effect6081"
       is_visible="true" />
    <inkscape:path-effect
       effect="spiro"
       id="path-effect6077"
       is_visible="true" />
    <inkscape:path-effect
       effect="spiro"
       id="path-effect6073"
       is_visible="true" />
  </defs>
  <sodipodi:namedview
     pagecolor="#ffffff"
     bordercolor="#666666"
     borderopacity="1"
     objecttolerance="10"
     gridtolerance="10"
     guidetolerance="10"
     inkscape:pageopacity="0"
     inkscape:pageshadow="2"
     inkscape:window-width="1402"
     inkscape:window-height="818"
     id="namedview12"
     showgrid="false"
     inkscape:zoom="8.98"
     inkscape:cx="19.560333"
     inkscape:cy="23.03477"
     inkscape:window-x="42"
     inkscape:window-y="42"
     inkscape:window-maximized="0"
     inkscape:current-layer="svg2"
     showguides="true"
     inkscape:guide-bbox="true">
    <sodipodi:guide
       position="9.2427617,34.521158"
       orientation="1,0"
       id="guide5790" />
    <sodipodi:guide
       position="-50.960219,45.404664"
       orientation="0,1"
       id="guide5792" />
    <sodipodi:guide
       position="22.048998,50.334076"
       orientation="1,0"
       id="guide5794" />
    <sodipodi:guide
       position="-7.1269488,24.053452"
       orientation="0,1"
       id="guide5796" />
    <sodipodi:guide
       position="-66.440255,40.737091"
       orientation="1,0"
       id="guide5915" />
    <sodipodi:guide
       position="-55.286052,42.385973"
       orientation="1,0"
       id="guide5917" />
    <sodipodi:guide
       position="36.302895,49.554566"
       orientation="1,0"
       id="guide6036" />
  </sodipodi:namedview>
  <!-- Created with SVG-edit - http://svg-edit.googlecode.com/ -->
  <title
     id="title4">Category Icon</title>
  <g
     id="g5802"
     transform="matrix(1.2347919,0,0,1.1070474,8.7428543,0.3411593)">
    <path
       inkscape:connector-curvature="0"
       id="path5798"
       d="m 3.4379893,16.786676 0,-14.204325 16.8280527,0 0,14.204325 z"
       style="fill:none;fill-rule:evenodd;stroke:#000000;stroke-width:1px;stroke-linecap:butt;stroke-linejoin:miter;stroke-opacity:1" />
    <path
       inkscape:connector-curvature="0"
       id="path5800"
       d="m 3.4379893,2.582351 0,-1.89994124 5.6998245,0 0.6333138,1.89994124 z"
       style="fill:none;fill-rule:evenodd;stroke:#000000;stroke-width:1px;stroke-linecap:butt;stroke-linejoin:miter;stroke-opacity:1" />
  </g>
  <path
     inkscape:connector-curvature="0"
     style="fill:none;fill-rule:evenodd;stroke:#000000;stroke-width:0.698;stroke-linecap:butt;stroke-linejoin:miter;stroke-miterlimit:4;stroke-dasharray:none;stroke-opacity:1"
     d="m 2.1672951,28.61695 0,18.790792 16.8450369,0 0,-16.437098 c -0.426319,-0.266963 -0.33009,-0.236235 -0.675455,-0.576151 -0.05153,-0.05071 0.09025,0.110351 0.135679,0.165353 -0.370911,-0.171319 -0.569149,-0.493211 -0.811135,-0.775091 -0.05606,-0.06531 -0.119655,-0.126238 -0.179924,-0.188606 l -0.241868,-0.289367 c -0.172192,-0.180206 -0.311982,-0.345395 -0.44538,-0.550315 -0.01573,-0.02418 -0.04897,-0.10245 -0.04425,-0.07493 0.02651,0.154538 0.176016,0.191514 -0.14452,0.01033 -0.04028,-0.01764 -0.06373,-0.05319 -0.100298,-0.07492 l -14.3378966,0 z"
     id="path5919" />
  <path
     style="fill:#000000;fill-opacity:1;fill-rule:evenodd;stroke:#000000;stroke-width:0.01016252;stroke-linecap:butt;stroke-linejoin:round;stroke-miterlimit:4;stroke-dasharray:none;stroke-opacity:1"
     d="m 15.296507,28.530633 -0.249024,3.343992 3.897636,-1.11541 c -0.06262,-0.05579 -0.09786,-0.09067 -0.233935,-0.201081 -0.06592,-0.05348 0.115455,0.11533 0.173566,0.172836 -0.47447,-0.190056 -0.728055,-0.523373 -1.037611,-0.818518 -0.0717,-0.06838 -0.153055,-0.132715 -0.230158,-0.19834 l -0.309397,-0.302673 c -0.220279,-0.189521 -0.399099,-0.362387 -0.569743,-0.574923 -0.01035,-0.01305 -0.01765,-0.02041 -0.03019,-0.04012 -0.0017,-6.12e-4 -0.0059,-0.0023 -0.0076,-0.0029 0.05405,0.110043 0.154176,0.141469 -0.203748,-0.03099 -0.05153,-0.01967 -0.0815,-0.05655 -0.128268,-0.08017 -0.137094,-0.04371 -0.231217,-0.07284 -0.381088,-0.125982 l -0.690427,-0.02575 z"
     id="path5929"
     inkscape:connector-curvature="0" />
  <path
     style="fill:#000000;fill-opacity:1;stroke-width:0.2;stroke-linejoin:round;stroke-miterlimit:4;stroke-dasharray:none"
     id="path6095"
     d="m 6.3303762,33.963244 c 0.5122321,0.0038 1.0244978,0.0031 1.5367422,0.0018 0.3846276,-5.79e-4 0.7692567,-1.96e-4 1.1538843,-9.52e-4 0.2954852,-0.02738 0.538948,0.01537 0.8017324,0.135686 0.2060769,0.104791 0.4213249,0.146233 0.6533609,0.162298 0.271032,-0.04077 0.538223,-0.09699 0.812275,-0.119556 0.283113,-0.01821 0.566996,-0.02376 0.850738,-0.02563 0.279912,0.0059 0.546469,-0.07971 0.802271,-0.17318 0.231441,-0.08173 0.438621,-0.132357 0.661937,-0.01439 0.167356,0.121467 0.375106,0.152381 0.582155,0.17088 0.162381,0.01384 0.325537,0.01655 0.488498,0.01871 0,0 -1.093468,0.719646 -1.093468,0.719646 l 0,0 c -0.165731,-0.0046 -0.331709,-0.01031 -0.496298,-0.02992 -0.217549,-0.03216 -0.423653,-0.08473 -0.607141,-0.20066 -0.205685,-0.05923 -0.402868,0.03076 -0.596642,0.09316 -0.266133,0.08971 -0.546905,0.144956 -0.832086,0.138621 -0.280782,0.0034 -0.562044,0.0082 -0.841535,0.035 -0.2763785,0.0341 -0.5495199,0.100584 -0.8295061,0.09869 -0.2412486,-0.02731 -0.4646898,-0.09167 -0.679673,-0.196977 -0.2483598,-0.100843 -0.4969052,-0.102883 -0.7662437,-0.09184 -0.3836674,-7.59e-4 -0.7673363,-3.72e-4 -1.1510037,-9.53e-4 -0.5141085,-0.0013 -1.0282368,-0.0019 -1.5423347,0.0018 0,0 1.0923374,-0.722337 1.0923374,-0.722337 z"
     inkscape:connector-curvature="0" />
  <path
     style="fill:#000000;fill-opacity:1;stroke-width:0.2;stroke-linejoin:round;stroke-miterlimit:4;stroke-dasharray:none"
     id="path6097"
     d="m 6.5319878,37.564138 c 0.4586713,0.169766 0.8277573,0.487619 1.2073677,0.769388 0.3383605,0.232988 0.4688259,0.241445 0.8414911,0.07581 -1.8748409,0.962159 -1.0967398,0.634191 -0.7627239,0.323184 0.094211,-0.08772 0.1751378,-0.188487 0.2630552,-0.281399 0.5074661,-0.43948 1.1973531,-0.759456 1.8894801,-0.8874 0.249101,-0.0464 0.504292,-0.05189 0.757656,-0.05449 0.35255,0.07498 0.678214,0.24569 0.995727,0.401428 0.253918,0.137905 0.418092,0.204954 0.708628,0.155906 0.228022,-0.05293 0.463213,-0.07079 0.697394,-0.08346 0.288099,0.0128 0.562817,-0.03475 0.842658,-0.08963 0.268347,-0.139562 0.540335,-0.265506 0.840796,-0.335767 0.140533,-0.01969 0.2821,-0.03122 0.423706,-0.04189 0,0 -1.083809,0.731051 -1.083809,0.731051 l 0,0 c -0.137003,0.01337 -0.274624,0.02581 -0.40766,0.06064 -0.292841,0.09013 -0.55557,0.236234 -0.847276,0.327025 -0.283182,0.05026 -0.565532,0.07528 -0.854216,0.07756 -0.233285,0.01821 -0.463657,0.05017 -0.694025,0.08769 -0.277362,0.01303 -0.518369,-0.08889 -0.752242,-0.219052 -0.300031,-0.146055 -0.6155328,-0.319724 -0.9594613,-0.347734 -0.248343,0.0068 -0.4975123,0.01957 -0.7398201,0.07378 -0.1484616,0.03474 -0.2917341,0.07124 -0.431537,0.129761 -0.037755,0.0158 -0.1464072,0.07151 -0.1107679,0.05205 1.2124747,-0.662183 1.3838249,-0.769904 0.9682008,-0.514283 -0.093846,0.09374 -0.1723561,0.194271 -0.2612992,0.290742 -0.390538,0.423594 -1.0839327,0.64829 -1.5406378,0.902356 -0.3882631,0.116608 -0.6079927,0.05019 -0.9225941,-0.18452 -0.3660836,-0.276484 -0.7273981,-0.585764 -1.1841839,-0.72951 0,0 1.116101,-0.689239 1.116101,-0.689239 z"
     inkscape:connector-curvature="0" />
  <path
     style="fill:#000000;fill-opacity:1;stroke-width:0.2;stroke-linejoin:round;stroke-miterlimit:4;stroke-dasharray:none"
     id="path6099"
     d="m 5.3242382,42.20192 c 0.7883775,-0.4844 1.4688297,-0.827687 2.3744502,-0.943242 0.3416337,-0.0427 0.6868648,-0.04823 1.0311357,-0.04898 0.2323372,0.03658 0.4539599,0.108754 0.6882511,0.135666 0.1998099,-0.05244 0.3992333,-0.09164 0.6062108,-0.110222 0.371662,0.04054 0.694585,0.213074 0.99533,0.404932 0.210755,0.152236 0.458938,0.337019 0.735477,0.218361 -0.356377,0.180351 -0.711678,0.362476 -1.069132,0.541051 -0.03635,0.01817 0.07108,-0.03898 0.105716,-0.05975 0.02339,-0.01403 0.225072,-0.143155 0.244826,-0.153624 0.428797,-0.227248 0.858955,-0.452423 1.292052,-0.672809 0.04134,-0.02104 0.08703,-0.03406 0.130535,-0.05109 0.247384,-0.07925 0.508945,-0.09148 0.768485,-0.09702 0.2673,-0.0036 0.534657,-5.08e-4 0.801976,1.98e-4 0.04116,1.42e-4 0.0826,0.0047 0.123505,4.24e-4 0.08602,-0.009 0.171528,-0.02672 0.253065,-0.05321 0.04033,-0.01316 0.151901,-0.07202 0.114633,-0.0528 -1.109193,0.572122 -1.347099,0.789864 -0.971092,0.464869 0.587913,-0.709423 -0.03645,-0.232212 1.517004,-1.054476 0,0 -1.0628,0.760071 -1.0628,0.760071 l 0,0 c 0.361008,-0.198937 0.722018,-0.397872 1.083027,-0.596809 -0.01887,0.01593 -0.04161,0.02875 -0.05661,0.04778 -0.08914,0.113075 -0.119046,0.266362 -0.239993,0.361442 -0.365649,0.528641 -1.166683,0.839785 -1.852344,0.84385 -0.266091,-0.0015 -0.532298,-0.0037 -0.798305,0.0039 -0.25184,0.01233 -0.504304,0.03709 -0.736151,0.134904 -0.471293,0.2088 -0.218692,0.100499 0.888318,-0.484899 0.08529,-0.0451 -0.163691,0.100291 -0.243359,0.153225 -0.423688,0.281516 -0.983775,0.390209 -1.366494,0.710458 -0.316182,0.01787 -0.559295,-0.12676 -0.795586,-0.305964 -0.2796575,-0.172783 -0.5945176,-0.339155 -0.9436977,-0.329083 -0.2095293,0.02856 -0.4152954,0.09612 -0.6286275,0.08317 -0.2255184,-0.03699 -0.4433351,-0.110402 -0.6734963,-0.121025 -0.339698,0.0043 -0.68009,0.01302 -1.0163778,0.06129 -0.2207796,0.03431 -0.4339033,0.07285 -0.6453805,0.141969 -0.4557845,0.148957 -1.2843224,0.606962 0.6043116,-0.374603 0,0 -1.2588575,0.442034 -1.2588575,0.442034 z"
     inkscape:connector-curvature="0" />
  <path
     style="fill:#000000;fill-opacity:1;stroke-width:0.2;stroke-linejoin:round;stroke-miterlimit:4;stroke-dasharray:none"
     id="path6101"
     d="m 6.6769768,44.633943 c 0.3294628,0.04706 0.5841469,0.264091 0.8450641,0.439026 0.2062637,0.126317 0.4518828,0.138656 0.6921955,0.150117 0.2594594,0.01614 0.5097959,0.01039 0.741494,-0.105568 0.2492348,-0.125222 0.5140553,-0.181217 0.7967487,-0.160563 0.3745079,0.07676 0.7385999,0.205621 1.1256739,0.202873 0.145403,-0.01066 0.175917,-0.0026 0.311301,-0.05237 0.44505,-0.163499 1.420018,-0.711537 -0.596242,0.337677 0.428463,-0.223554 0.860633,-0.441324 1.285391,-0.670662 0.341121,-0.184179 -0.686944,0.361152 -1.034446,0.53517 -0.06358,0.03184 0.108181,-0.08983 0.17158,-0.121968 1.260567,-0.638662 0.846953,-0.840756 1.34776,-0.547272 0.137977,0.05737 0.332139,0.39923 0.48276,0.401078 0.01927,2.37e-4 0.02354,-0.02777 0.03531,-0.04165 0.327684,-0.341411 0.0075,0.0036 -1.040125,0.512489 -0.03016,0.01465 0.04552,-0.0465 0.06977,-0.06844 0.0802,-0.07256 0.168986,-0.128117 0.261933,-0.185958 0.420014,-0.222447 0.840028,-0.444892 1.260043,-0.667339 0.0346,-0.01528 0.137033,-0.06346 0.103813,-0.04582 -0.348282,0.185001 -1.404434,0.721872 -1.049278,0.548032 0.695749,-0.340552 0.943182,-0.59491 1.547057,-0.731189 0.229316,-0.106053 0.477933,-0.162204 0.730011,-0.200168 0,0 -1.077397,0.740383 -1.077397,0.740383 l 0,0 c -0.24831,0.04684 -0.483623,0.126912 -0.720185,0.208703 -0.08794,0.02695 -0.338968,0.13543 -0.259382,0.09201 0.343659,-0.187544 1.391253,-0.724141 1.03925,-0.549886 -0.426508,0.211136 -0.841537,0.440941 -1.262836,0.660569 -0.03287,0.01715 -0.132346,0.06719 -0.09967,0.04972 0.347527,-0.185832 0.696196,-0.369891 1.044293,-0.554837 -0.515,0.332008 -1.044861,0.766893 -1.633074,0.925473 -0.23594,-0.08108 -0.35474,-0.287747 -0.556971,-0.412527 -0.483535,-0.04535 -0.122927,2.4e-4 1.027782,-0.59644 0.02899,-0.01503 -0.0483,0.04191 -0.07326,0.06206 -0.03109,0.02511 -0.05938,0.05396 -0.09487,0.07367 -0.41966,0.23303 -0.855083,0.442513 -1.269125,0.683725 -0.331561,0.193162 0.680999,-0.359641 1.021497,-0.539461 -0.567914,0.297307 -1.320695,0.85541 -2.064254,0.871356 -0.3842304,-0.02799 -0.7450762,-0.150314 -1.1255646,-0.200235 -0.2735188,0.01164 -0.5203903,0.08996 -0.7637176,0.202837 -0.2551909,0.07385 -0.5137859,0.0822 -0.7797462,0.05906 -0.26164,-0.02096 -0.5186524,-0.06065 -0.7344833,-0.208156 -0.2494569,-0.169303 -0.4928177,-0.361292 -0.8138074,-0.39301 0,0 1.1077009,-0.702515 1.1077009,-0.702515 z"
     inkscape:connector-curvature="0" />
  <g
     transform="matrix(1.336103,0,0,1.1460974,18.462927,27.902504)"
     id="g5802-2-2">
    <path
       inkscape:connector-curvature="0"
       id="path5798-1-7"
       d="m 3.4379893,16.786676 0,-14.204325 16.8280527,0 0,14.204325 z"
       style="fill:none;fill-rule:evenodd;stroke:#000000;stroke-width:1px;stroke-linecap:butt;stroke-linejoin:miter;stroke-opacity:1" />
    <path
       inkscape:connector-curvature="0"
       id="path5800-3-2"
       d="m 3.4379893,2.582351 0,-1.89994124 5.6998245,0 0.6333138,1.89994124 z"
       style="fill:none;fill-rule:evenodd;stroke:#000000;stroke-width:1px;stroke-linecap:butt;stroke-linejoin:miter;stroke-opacity:1" />
  </g>
  <rect
     style="fill:#000000;fill-opacity:1;stroke-width:1.20000005;stroke-linejoin:round;stroke-miterlimit:4;stroke-dasharray:none"
     id="rect6198"
     width="12.806236"
     height="1.1135858"
     x="9.2427616"
     y="22.832962" />
  <rect
     style="fill:#000000;fill-opacity:1;stroke-width:1.20000005;stroke-linejoin:round;stroke-miterlimit:4;stroke-dasharray:none"
     id="rect6200"
     width="1.7763568e-15"
     height="3.3407571"
     x="9.2427616"
     y="23.946548" />
  <rect
     style="fill:#000000;fill-opacity:1;stroke-width:1.20000005;stroke-linejoin:round;stroke-miterlimit:4;stroke-dasharray:none"
     id="rect6202"
     width="1.2249444"
     height="3.3407571"
     x="9.2427616"
     y="23.946548" />
  <rect
     style="fill:#000000;fill-opacity:1;stroke-width:1.20000005;stroke-linejoin:round;stroke-miterlimit:4;stroke-dasharray:none"
     id="rect6210"
     width="1.5590198"
     height="3.452116"
     x="22.048998"
     y="20.494432" />
  <rect
     style="fill:#000000;fill-opacity:1;stroke-width:1.20000005;stroke-linejoin:round;stroke-miterlimit:4;stroke-dasharray:none"
     id="rect6212"
     width="14.253897"
     height="1.2249445"
     x="22.048998"
     y="22.721603" />
  <rect
     style="fill:#000000;fill-opacity:1;stroke-width:1.20000005;stroke-linejoin:round;stroke-miterlimit:4;stroke-dasharray:none"
     id="rect6216"
     width="1.224944"
     height="3.3407571"
     x="35.07795"
     y="23.946548" />
</svg>
