<svg id="svg" version="1.1" xmlns="http://www.w3.org/2000/svg" xmlns:xlink="http://www.w3.org/1999/xlink" width="400" height="400" viewBox="0, 0, 400,400"><g id="svgg"><path id="path0" d="M133.614 155.974 C 133.386 156.399,133.200 157.941,133.200 159.400 C 133.200 163.470,133.340 163.600,137.734 163.600 C 142.885 163.600,142.400 161.219,142.400 186.494 L 142.400 208.428 146.500 208.314 L 150.600 208.200 150.800 186.000 L 151.000 163.800 154.400 163.700 C 159.927 163.537,159.600 163.804,159.600 159.435 C 159.600 156.385,159.482 155.640,158.967 155.443 C 157.070 154.715,134.030 155.197,133.614 155.974 M167.294 155.666 C 166.723 156.237,166.567 207.013,167.133 207.906 C 167.383 208.300,170.195 208.388,179.827 208.306 L 192.200 208.200 192.314 204.300 L 192.429 200.400 184.491 200.400 C 178.768 200.400,176.364 200.261,175.877 199.900 C 175.259 199.443,175.193 197.517,175.101 177.400 L 175.000 155.400 171.394 155.286 C 168.931 155.209,167.631 155.329,167.294 155.666 M218.480 155.680 C 217.914 156.246,217.783 207.038,218.346 207.926 C 218.610 208.343,220.739 208.426,228.640 208.326 L 238.600 208.200 240.462 207.106 C 241.801 206.318,242.586 205.477,243.262 204.106 L 244.200 202.200 244.200 181.800 C 244.200 157.361,244.249 157.574,238.272 155.799 C 235.655 155.022,219.237 154.923,218.480 155.680 M253.697 155.532 C 253.300 155.784,253.216 161.351,253.297 182.025 L 253.400 208.200 257.400 208.200 L 261.400 208.200 261.600 199.400 L 261.800 190.600 264.036 190.482 C 266.681 190.342,266.876 190.519,267.705 193.800 C 268.882 198.457,270.844 205.816,271.250 207.100 L 271.662 208.400 275.631 208.400 C 280.322 208.400,280.139 208.744,278.572 202.860 C 275.870 192.716,275.160 189.910,275.275 189.829 C 275.344 189.780,276.006 189.322,276.746 188.810 C 279.655 186.800,279.992 185.179,279.994 173.200 C 279.997 155.739,279.479 155.194,262.869 155.206 C 258.101 155.209,253.974 155.356,253.697 155.532 M235.371 164.600 C 236.393 165.954,236.290 198.414,235.260 199.346 C 234.296 200.218,228.542 200.718,227.274 200.040 L 226.400 199.572 226.400 182.066 C 226.400 168.600,226.515 164.442,226.900 164.050 C 227.774 163.158,234.617 163.603,235.371 164.600 M270.618 164.582 C 271.675 165.639,272.152 178.096,271.229 180.525 C 270.635 182.085,264.803 183.144,262.233 182.157 C 261.574 181.904,261.226 164.508,261.867 163.867 C 262.693 163.040,269.645 163.608,270.618 164.582 M201.614 178.374 C 201.034 179.457,201.085 184.925,201.680 185.520 C 201.974 185.814,203.413 186.000,205.400 186.000 C 209.448 186.000,209.600 185.854,209.600 181.949 C 209.600 177.875,209.321 177.600,205.186 177.600 C 202.473 177.600,201.970 177.709,201.614 178.374 M201.387 201.308 C 200.679 204.132,201.357 207.781,202.700 208.372 C 204.258 209.058,204.261 209.149,202.816 212.200 C 201.527 214.922,201.662 215.307,203.844 215.127 C 207.385 214.836,211.054 205.455,209.357 201.033 C 208.913 199.876,201.684 200.126,201.387 201.308 " stroke="none" fill="#040404" fill-rule="evenodd"></path><path id="path1" d="M196.400 72.000 C 196.400 72.233,195.067 72.400,193.200 72.400 C 191.333 72.400,190.000 72.567,190.000 72.800 C 190.000 73.022,188.933 73.200,187.600 73.200 C 186.267 73.200,185.200 73.378,185.200 73.600 C 185.200 73.820,184.480 74.000,183.600 74.000 C 182.720 74.000,182.000 74.180,182.000 74.400 C 182.000 74.620,181.280 74.800,180.400 74.800 C 179.520 74.800,178.800 74.980,178.800 75.200 C 178.800 75.420,178.260 75.600,177.600 75.600 C 176.940 75.600,176.400 75.780,176.400 76.000 C 176.400 76.220,175.860 76.400,175.200 76.400 C 174.540 76.400,174.000 76.580,174.000 76.800 C 174.000 77.020,173.460 77.200,172.800 77.200 C 172.140 77.200,171.600 77.380,171.600 77.600 C 171.600 77.820,171.060 78.000,170.400 78.000 C 169.740 78.000,169.200 78.180,169.200 78.400 C 169.200 78.620,168.840 78.800,168.400 78.800 C 167.960 78.800,167.600 78.980,167.600 79.200 C 167.600 79.420,167.060 79.600,166.400 79.600 C 165.740 79.600,165.200 79.780,165.200 80.000 C 165.200 80.220,164.840 80.400,164.400 80.400 C 163.960 80.400,163.600 80.580,163.600 80.800 C 163.600 81.020,163.240 81.200,162.800 81.200 C 162.360 81.200,162.000 81.380,162.000 81.600 C 162.000 81.820,161.640 82.000,161.200 82.000 C 160.760 82.000,160.400 82.180,160.400 82.400 C 160.400 82.620,160.040 82.800,159.600 82.800 C 159.160 82.800,158.800 82.980,158.800 83.200 C 158.800 83.420,158.440 83.600,158.000 83.600 C 157.560 83.600,157.200 83.780,157.200 84.000 C 157.200 84.220,156.840 84.400,156.400 84.400 C 155.960 84.400,155.600 84.580,155.600 84.800 C 155.600 85.020,155.240 85.200,154.800 85.200 C 154.360 85.200,154.000 85.380,154.000 85.600 C 154.000 85.820,153.680 86.000,153.288 86.000 C 152.897 86.000,152.317 86.360,152.000 86.800 C 151.683 87.240,151.143 87.600,150.800 87.600 C 150.457 87.600,149.917 87.960,149.600 88.400 C 149.283 88.840,148.703 89.200,148.312 89.200 C 147.920 89.200,147.600 89.380,147.600 89.600 C 147.600 89.820,147.312 90.000,146.960 90.000 C 146.609 90.000,145.817 90.540,145.200 91.200 C 144.583 91.860,143.863 92.400,143.600 92.400 C 143.337 92.400,142.617 92.940,142.000 93.600 C 141.383 94.260,140.670 94.800,140.414 94.800 C 140.158 94.800,139.071 95.700,138.000 96.800 C 136.929 97.900,135.859 98.800,135.622 98.800 C 135.061 98.800,124.400 109.461,124.400 110.022 C 124.400 110.259,123.500 111.329,122.400 112.400 C 121.300 113.471,120.400 114.590,120.400 114.886 C 120.400 115.181,120.040 115.683,119.600 116.000 C 119.160 116.317,118.800 116.821,118.800 117.120 C 118.800 117.418,118.080 118.354,117.200 119.200 C 116.320 120.046,115.600 121.021,115.600 121.369 C 115.600 121.716,115.420 122.000,115.200 122.000 C 114.980 122.000,114.800 122.360,114.800 122.800 C 114.800 123.240,114.620 123.600,114.400 123.600 C 114.180 123.600,114.000 123.920,114.000 124.312 C 114.000 124.703,113.640 125.283,113.200 125.600 C 112.760 125.917,112.400 126.497,112.400 126.888 C 112.400 127.280,112.220 127.600,112.000 127.600 C 111.780 127.600,111.600 127.920,111.600 128.312 C 111.600 128.703,111.240 129.283,110.800 129.600 C 110.360 129.917,110.000 130.497,110.000 130.888 C 110.000 131.280,109.820 131.600,109.600 131.600 C 109.380 131.600,109.200 132.140,109.200 132.800 C 109.200 133.460,109.020 134.000,108.800 134.000 C 108.580 134.000,108.400 134.360,108.400 134.800 C 108.400 135.240,108.220 135.600,108.000 135.600 C 107.780 135.600,107.600 135.960,107.600 136.400 C 107.600 136.840,107.420 137.200,107.200 137.200 C 106.980 137.200,106.800 137.560,106.800 138.000 C 106.800 138.440,106.620 138.800,106.400 138.800 C 106.180 138.800,106.000 139.160,106.000 139.600 C 106.000 140.040,105.820 140.400,105.600 140.400 C 105.380 140.400,105.200 140.940,105.200 141.600 C 105.200 142.260,105.020 142.800,104.800 142.800 C 104.580 142.800,104.400 143.340,104.400 144.000 C 104.400 144.660,104.220 145.200,104.000 145.200 C 103.780 145.200,103.600 145.740,103.600 146.400 C 103.600 147.060,103.420 147.600,103.200 147.600 C 102.980 147.600,102.800 147.960,102.800 148.400 C 102.800 148.840,102.620 149.200,102.400 149.200 C 102.180 149.200,102.000 149.920,102.000 150.800 C 102.000 151.680,101.820 152.400,101.600 152.400 C 101.380 152.400,101.200 153.120,101.200 154.000 C 101.200 154.880,101.020 155.600,100.800 155.600 C 100.580 155.600,100.400 156.320,100.400 157.200 C 100.400 158.080,100.220 158.800,100.000 158.800 C 99.780 158.800,99.600 159.700,99.600 160.800 C 99.600 161.900,99.420 162.800,99.200 162.800 C 98.971 162.800,98.800 164.000,98.800 165.600 C 98.800 167.200,98.629 168.400,98.400 168.400 C 98.152 168.400,98.000 170.533,98.000 174.000 C 98.000 177.467,97.848 179.600,97.600 179.600 C 97.371 179.600,97.200 180.800,97.200 182.400 C 97.200 184.000,97.371 185.200,97.600 185.200 C 97.846 185.200,98.000 187.200,98.000 190.400 C 98.000 193.600,98.154 195.600,98.400 195.600 C 98.633 195.600,98.800 196.933,98.800 198.800 C 98.800 200.667,98.967 202.000,99.200 202.000 C 99.420 202.000,99.600 202.900,99.600 204.000 C 99.600 205.100,99.780 206.000,100.000 206.000 C 100.220 206.000,100.400 206.720,100.400 207.600 C 100.400 208.480,100.580 209.200,100.800 209.200 C 101.020 209.200,101.200 209.920,101.200 210.800 C 101.200 211.680,101.380 212.400,101.600 212.400 C 101.820 212.400,102.000 213.120,102.000 214.000 C 102.000 214.880,102.180 215.600,102.400 215.600 C 102.620 215.600,102.800 215.960,102.800 216.400 C 102.800 216.840,102.980 217.200,103.200 217.200 C 103.420 217.200,103.600 217.740,103.600 218.400 C 103.600 219.060,103.780 219.600,104.000 219.600 C 104.220 219.600,104.400 220.140,104.400 220.800 C 104.400 221.460,104.580 222.000,104.800 222.000 C 105.020 222.000,105.200 222.540,105.200 223.200 C 105.200 223.860,105.380 224.400,105.600 224.400 C 105.820 224.400,106.000 224.760,106.000 225.200 C 106.000 225.640,106.180 226.000,106.400 226.000 C 106.620 226.000,106.800 226.360,106.800 226.800 C 106.800 227.240,106.980 227.600,107.200 227.600 C 107.420 227.600,107.600 227.960,107.600 228.400 C 107.600 228.840,107.780 229.200,108.000 229.200 C 108.220 229.200,108.400 229.560,108.400 230.000 C 108.400 230.440,108.580 230.800,108.800 230.800 C 109.020 230.800,109.200 231.160,109.200 231.600 C 109.200 232.040,109.380 232.400,109.600 232.400 C 109.820 232.400,110.000 232.760,110.000 233.200 C 110.000 233.640,110.180 234.000,110.400 234.000 C 110.620 234.000,110.800 234.360,110.800 234.800 C 110.800 235.240,110.980 235.600,111.200 235.600 C 111.420 235.600,111.600 235.960,111.600 236.400 C 111.600 236.840,111.780 237.200,112.000 237.200 C 112.220 237.200,112.400 237.520,112.400 237.912 C 112.400 238.303,112.760 238.883,113.200 239.200 C 113.640 239.517,114.000 240.097,114.000 240.488 C 114.000 240.880,114.180 241.200,114.400 241.200 C 114.620 241.200,114.800 241.520,114.800 241.912 C 114.800 242.303,115.160 242.883,115.600 243.200 C 116.040 243.517,116.400 244.025,116.400 244.328 C 116.400 244.631,116.940 245.383,117.600 246.000 C 118.260 246.617,118.800 247.337,118.800 247.600 C 118.800 247.863,119.340 248.583,120.000 249.200 C 120.660 249.817,121.200 250.529,121.200 250.783 C 121.200 251.037,122.280 252.304,123.600 253.600 C 124.920 254.896,126.000 256.148,126.000 256.382 C 126.000 256.941,135.062 266.000,135.622 266.000 C 135.858 266.000,136.929 266.900,138.000 268.000 C 139.071 269.100,140.158 270.000,140.414 270.000 C 140.670 270.000,141.383 270.540,142.000 271.200 C 142.617 271.860,143.337 272.400,143.600 272.400 C 143.863 272.400,144.583 272.940,145.200 273.600 C 145.817 274.260,146.609 274.800,146.960 274.800 C 147.312 274.800,147.600 274.980,147.600 275.200 C 147.600 275.420,147.920 275.600,148.312 275.600 C 148.703 275.600,149.283 275.960,149.600 276.400 C 149.917 276.840,150.497 277.200,150.888 277.200 C 151.280 277.200,151.600 277.380,151.600 277.600 C 151.600 277.820,151.920 278.000,152.312 278.000 C 152.703 278.000,153.283 278.360,153.600 278.800 C 153.917 279.240,154.497 279.600,154.888 279.600 C 155.280 279.600,155.600 279.780,155.600 280.000 C 155.600 280.220,155.960 280.400,156.400 280.400 C 156.840 280.400,157.200 280.580,157.200 280.800 C 157.200 281.020,157.560 281.200,158.000 281.200 C 158.440 281.200,158.800 281.380,158.800 281.600 C 158.800 281.820,159.160 282.000,159.600 282.000 C 160.040 282.000,160.400 282.180,160.400 282.400 C 160.400 282.620,160.760 282.800,161.200 282.800 C 161.640 282.800,162.000 282.980,162.000 283.200 C 162.000 283.420,162.360 283.600,162.800 283.600 C 163.240 283.600,163.600 283.780,163.600 284.000 C 163.600 284.220,163.960 284.400,164.400 284.400 C 164.840 284.400,165.200 284.580,165.200 284.800 C 165.200 285.020,165.740 285.200,166.400 285.200 C 167.060 285.200,167.600 285.380,167.600 285.600 C 167.600 285.820,167.960 286.000,168.400 286.000 C 168.840 286.000,169.200 286.180,169.200 286.400 C 169.200 286.620,169.740 286.800,170.400 286.800 C 171.060 286.800,171.600 286.980,171.600 287.200 C 171.600 287.420,172.140 287.600,172.800 287.600 C 173.460 287.600,174.000 287.780,174.000 288.000 C 174.000 288.220,174.540 288.400,175.200 288.400 C 175.860 288.400,176.400 288.580,176.400 288.800 C 176.400 289.020,176.940 289.200,177.600 289.200 C 178.260 289.200,178.800 289.380,178.800 289.600 C 178.800 289.820,179.700 290.000,180.800 290.000 C 181.900 290.000,182.800 290.180,182.800 290.400 C 182.800 290.620,183.520 290.800,184.400 290.800 C 185.280 290.800,186.000 290.980,186.000 291.200 C 186.000 291.422,187.067 291.600,188.400 291.600 C 189.733 291.600,190.800 291.778,190.800 292.000 C 190.800 292.229,192.000 292.400,193.600 292.400 C 195.200 292.400,196.400 292.571,196.400 292.800 C 196.400 293.058,200.800 293.200,208.800 293.200 C 216.800 293.200,221.200 293.058,221.200 292.800 C 221.200 292.571,222.400 292.400,224.000 292.400 C 225.600 292.400,226.800 292.229,226.800 292.000 C 226.800 291.778,227.867 291.600,229.200 291.600 C 230.533 291.600,231.600 291.422,231.600 291.200 C 231.600 290.980,232.320 290.800,233.200 290.800 C 234.080 290.800,234.800 290.620,234.800 290.400 C 234.800 290.180,235.520 290.000,236.400 290.000 C 237.280 290.000,238.000 289.820,238.000 289.600 C 238.000 289.380,238.720 289.200,239.600 289.200 C 240.480 289.200,241.200 289.020,241.200 288.800 C 241.200 288.580,241.740 288.400,242.400 288.400 C 243.060 288.400,243.600 288.220,243.600 288.000 C 243.600 287.780,243.960 287.600,244.400 287.600 C 244.840 287.600,245.200 287.420,245.200 287.200 C 245.200 286.980,245.740 286.800,246.400 286.800 C 247.060 286.800,247.600 286.620,247.600 286.400 C 247.600 286.180,248.140 286.000,248.800 286.000 C 249.460 286.000,250.000 285.820,250.000 285.600 C 250.000 285.380,250.360 285.200,250.800 285.200 C 251.240 285.200,251.600 285.020,251.600 284.800 C 251.600 284.580,252.140 284.400,252.800 284.400 C 253.460 284.400,254.000 284.220,254.000 284.000 C 254.000 283.780,254.360 283.600,254.800 283.600 C 255.240 283.600,255.600 283.420,255.600 283.200 C 255.600 282.980,255.960 282.800,256.400 282.800 C 256.840 282.800,257.200 282.620,257.200 282.400 C 257.200 282.180,257.560 282.000,258.000 282.000 C 258.440 282.000,258.800 281.820,258.800 281.600 C 258.800 281.380,259.160 281.200,259.600 281.200 C 260.040 281.200,260.400 281.020,260.400 280.800 C 260.400 280.580,260.720 280.400,261.112 280.400 C 261.503 280.400,262.083 280.040,262.400 279.600 C 262.717 279.160,263.297 278.800,263.688 278.800 C 264.080 278.800,264.400 278.620,264.400 278.400 C 264.400 278.180,264.720 278.000,265.112 278.000 C 265.503 278.000,266.083 277.640,266.400 277.200 C 266.717 276.760,267.297 276.400,267.688 276.400 C 268.080 276.400,268.400 276.220,268.400 276.000 C 268.400 275.780,268.720 275.600,269.112 275.600 C 269.503 275.600,270.083 275.240,270.400 274.800 C 270.717 274.360,271.225 274.000,271.528 274.000 C 271.831 274.000,272.583 273.460,273.200 272.800 C 273.817 272.140,274.537 271.600,274.800 271.600 C 275.063 271.600,275.783 271.060,276.400 270.400 C 277.017 269.740,277.727 269.200,277.980 269.200 C 278.232 269.200,279.681 267.940,281.200 266.400 C 282.719 264.860,284.154 263.600,284.389 263.600 C 284.946 263.600,289.200 259.348,289.200 258.792 C 289.200 258.557,290.640 256.941,292.400 255.200 C 294.160 253.459,295.600 251.829,295.600 251.578 C 295.600 251.326,296.140 250.617,296.800 250.000 C 297.460 249.383,298.000 248.631,298.000 248.328 C 298.000 248.025,298.360 247.517,298.800 247.200 C 299.240 246.883,299.600 246.375,299.600 246.072 C 299.600 245.769,300.140 245.017,300.800 244.400 C 301.460 243.783,302.000 243.079,302.000 242.834 C 302.000 242.205,302.874 240.726,303.700 239.957 C 304.085 239.599,304.400 239.100,304.400 238.848 C 304.400 238.207,305.267 236.732,306.100 235.957 C 306.485 235.599,306.800 235.121,306.800 234.894 C 306.800 234.667,307.340 233.455,308.000 232.200 C 308.660 230.945,309.200 229.673,309.200 229.372 C 309.200 229.071,309.560 228.189,310.000 227.412 C 310.440 226.635,311.160 225.365,311.600 224.588 C 312.040 223.811,312.400 222.832,312.400 222.411 C 312.400 221.991,312.580 221.536,312.800 221.400 C 313.020 221.264,313.200 220.724,313.200 220.200 C 313.200 219.676,313.380 219.136,313.600 219.000 C 313.820 218.864,314.000 218.409,314.000 217.989 C 314.000 217.568,314.360 216.583,314.800 215.800 C 315.240 215.017,315.600 213.672,315.600 212.811 C 315.600 211.951,315.780 211.136,316.000 211.000 C 316.220 210.864,316.400 210.144,316.400 209.400 C 316.400 208.656,316.580 207.936,316.800 207.800 C 317.020 207.664,317.200 206.944,317.200 206.200 C 317.200 205.456,317.380 204.736,317.600 204.600 C 317.820 204.464,318.000 203.384,318.000 202.200 C 318.000 201.016,318.180 199.936,318.400 199.800 C 318.620 199.664,318.800 198.584,318.800 197.400 C 318.800 196.216,318.980 195.136,319.200 195.000 C 319.745 194.663,319.745 170.937,319.200 170.600 C 318.980 170.464,318.800 169.024,318.800 167.400 C 318.800 165.776,318.620 164.336,318.400 164.200 C 318.180 164.064,318.000 163.164,318.000 162.200 C 318.000 161.236,317.820 160.336,317.600 160.200 C 317.380 160.064,317.200 159.164,317.200 158.200 C 317.200 157.236,317.020 156.336,316.800 156.200 C 316.580 156.064,316.400 155.344,316.400 154.600 C 316.400 153.856,316.220 153.136,316.000 153.000 C 315.780 152.864,315.600 152.144,315.600 151.400 C 315.600 150.656,315.420 149.936,315.200 149.800 C 314.980 149.664,314.800 149.209,314.800 148.789 C 314.800 148.368,314.440 147.383,314.000 146.600 C 313.560 145.817,313.200 144.832,313.200 144.411 C 313.200 143.991,313.020 143.536,312.800 143.400 C 312.580 143.264,312.400 142.724,312.400 142.200 C 312.400 141.676,312.220 141.136,312.000 141.000 C 311.780 140.864,311.600 140.349,311.600 139.856 C 311.600 139.363,311.425 138.785,311.210 138.570 C 310.700 138.060,306.000 128.775,306.000 128.277 C 306.000 128.066,305.685 127.601,305.300 127.243 C 304.438 126.441,303.600 124.987,303.600 124.294 C 303.600 124.009,303.240 123.517,302.800 123.200 C 302.360 122.883,302.000 122.343,302.000 122.000 C 302.000 121.657,301.640 121.117,301.200 120.800 C 300.760 120.483,300.400 119.975,300.400 119.672 C 300.400 119.369,299.860 118.617,299.200 118.000 C 298.540 117.383,298.000 116.663,298.000 116.400 C 298.000 116.137,297.460 115.417,296.800 114.800 C 296.140 114.183,295.600 113.473,295.600 113.220 C 295.600 112.968,294.340 111.519,292.800 110.000 C 291.260 108.481,290.000 107.047,290.000 106.812 C 290.000 106.255,284.945 101.200,284.388 101.200 C 284.153 101.200,282.719 99.940,281.200 98.400 C 279.681 96.860,278.232 95.600,277.980 95.600 C 277.727 95.600,277.017 95.060,276.400 94.400 C 275.783 93.740,275.063 93.200,274.800 93.200 C 274.537 93.200,273.817 92.660,273.200 92.000 C 272.583 91.340,271.831 90.800,271.528 90.800 C 271.225 90.800,270.717 90.440,270.400 90.000 C 270.083 89.560,269.503 89.200,269.112 89.200 C 268.720 89.200,268.400 89.020,268.400 88.800 C 268.400 88.580,268.080 88.400,267.688 88.400 C 267.297 88.400,266.717 88.040,266.400 87.600 C 266.083 87.160,265.543 86.800,265.200 86.800 C 264.857 86.800,264.317 86.440,264.000 86.000 C 263.683 85.560,263.103 85.200,262.712 85.200 C 262.320 85.200,262.000 85.020,262.000 84.800 C 262.000 84.580,261.640 84.400,261.200 84.400 C 260.760 84.400,260.400 84.220,260.400 84.000 C 260.400 83.780,260.040 83.600,259.600 83.600 C 259.160 83.600,258.800 83.420,258.800 83.200 C 258.800 82.980,258.440 82.800,258.000 82.800 C 257.560 82.800,257.200 82.620,257.200 82.400 C 257.200 82.180,256.840 82.000,256.400 82.000 C 255.960 82.000,255.600 81.820,255.600 81.600 C 255.600 81.380,255.240 81.200,254.800 81.200 C 254.360 81.200,254.000 81.020,254.000 80.800 C 254.000 80.580,253.460 80.400,252.800 80.400 C 252.140 80.400,251.600 80.220,251.600 80.000 C 251.600 79.780,251.240 79.600,250.800 79.600 C 250.360 79.600,250.000 79.420,250.000 79.200 C 250.000 78.980,249.460 78.800,248.800 78.800 C 248.140 78.800,247.600 78.620,247.600 78.400 C 247.600 78.180,247.240 78.000,246.800 78.000 C 246.360 78.000,246.000 77.820,246.000 77.600 C 246.000 77.380,245.460 77.200,244.800 77.200 C 244.140 77.200,243.600 77.020,243.600 76.800 C 243.600 76.580,243.060 76.400,242.400 76.400 C 241.740 76.400,241.200 76.220,241.200 76.000 C 241.200 75.780,240.660 75.600,240.000 75.600 C 239.340 75.600,238.800 75.420,238.800 75.200 C 238.800 74.980,238.080 74.800,237.200 74.800 C 236.320 74.800,235.600 74.620,235.600 74.400 C 235.600 74.180,234.880 74.000,234.000 74.000 C 233.120 74.000,232.400 73.820,232.400 73.600 C 232.400 73.378,231.333 73.200,230.000 73.200 C 228.667 73.200,227.600 73.022,227.600 72.800 C 227.600 72.567,226.267 72.400,224.400 72.400 C 222.533 72.400,221.200 72.233,221.200 72.000 C 221.200 71.742,216.800 71.600,208.800 71.600 C 200.800 71.600,196.400 71.742,196.400 72.000 M159.511 155.023 C 160.322 155.591,160.400 155.974,160.400 159.394 C 160.400 164.310,160.310 164.400,155.371 164.400 L 151.600 164.400 151.600 186.171 C 151.600 211.694,152.158 209.200,146.451 209.200 C 141.083 209.200,141.600 211.637,141.600 186.320 L 141.600 164.400 137.800 164.400 C 132.816 164.400,132.400 164.048,132.400 159.826 C 132.400 156.450,132.830 154.951,133.877 154.680 C 136.051 154.117,158.649 154.419,159.511 155.023 M174.974 154.790 L 176.000 155.180 176.000 176.757 C 176.000 188.625,176.109 198.619,176.243 198.967 C 176.453 199.515,177.549 199.600,184.363 199.600 C 193.749 199.600,193.200 199.302,193.200 204.400 C 193.200 206.853,193.027 208.413,192.720 208.720 C 191.908 209.532,167.450 209.393,166.629 208.571 C 165.784 207.727,165.660 156.582,166.500 155.522 C 167.396 154.392,172.718 153.932,174.974 154.790 M240.008 155.689 C 245.044 158.155,245.268 159.363,245.118 183.252 C 244.979 205.608,244.988 205.562,240.200 208.139 C 237.997 209.325,218.971 209.714,217.853 208.596 C 216.987 207.729,216.839 156.608,217.700 155.522 C 218.540 154.464,219.094 154.413,228.608 154.516 C 237.690 154.615,237.846 154.631,240.008 155.689 M275.200 155.301 C 280.315 157.588,280.600 158.513,280.600 172.800 C 280.600 186.056,280.507 186.535,277.427 189.074 L 276.030 190.225 278.036 197.813 C 281.241 209.939,281.409 209.185,275.509 209.194 C 270.679 209.201,271.046 209.680,268.616 200.200 C 266.183 190.710,266.384 191.126,264.298 191.277 L 262.600 191.400 262.400 199.915 C 262.166 209.888,262.561 209.185,257.180 209.194 C 251.874 209.202,252.399 212.193,252.406 182.020 C 252.412 155.973,252.448 155.151,253.600 154.669 C 254.956 154.101,273.747 154.651,275.200 155.301 M227.200 181.367 C 227.200 201.411,226.841 199.600,230.814 199.600 C 235.573 199.600,235.200 201.111,235.200 181.851 C 235.200 162.792,235.613 164.400,230.720 164.400 L 227.200 164.400 227.200 181.367 M262.492 172.900 L 262.600 181.400 266.040 181.400 C 271.002 181.400,270.800 181.751,270.800 173.125 C 270.800 164.017,271.003 164.400,266.178 164.400 L 262.384 164.400 262.492 172.900 M209.111 177.423 C 210.264 178.230,210.468 185.075,209.371 186.171 C 208.356 187.187,202.259 187.059,201.200 186.000 C 200.373 185.173,199.997 179.213,200.706 178.166 C 201.685 176.719,207.387 176.215,209.111 177.423 M209.520 200.080 C 209.834 200.394,210.000 202.058,210.000 204.902 L 210.000 209.244 208.343 211.722 C 205.739 215.615,205.293 216.000,203.379 216.000 C 200.801 216.000,200.574 215.379,201.994 212.214 C 203.424 209.026,203.400 209.200,202.409 209.200 C 200.454 209.200,199.395 201.133,201.200 199.991 C 202.092 199.428,208.940 199.500,209.520 200.080 " stroke="none" fill="#dbdbdb" fill-rule="evenodd"></path><path id="path2" d="M140.525 155.099 C 144.004 155.166,149.584 155.166,152.925 155.099 C 156.266 155.032,153.420 154.978,146.600 154.978 C 139.780 154.978,137.046 155.033,140.525 155.099 M169.500 155.093 C 170.435 155.177,171.965 155.177,172.900 155.093 C 173.835 155.009,173.070 154.940,171.200 154.940 C 169.330 154.940,168.565 155.009,169.500 155.093 M223.100 155.098 C 225.355 155.170,229.045 155.170,231.300 155.098 C 233.555 155.027,231.710 154.969,227.200 154.969 C 222.690 154.969,220.845 155.027,223.100 155.098 M258.078 155.098 C 260.431 155.169,264.391 155.169,266.878 155.099 C 269.365 155.029,267.440 154.971,262.600 154.970 C 257.760 154.970,255.725 155.028,258.078 155.098 M175.691 177.676 C 175.641 189.708,175.735 199.636,175.900 199.738 C 176.172 199.907,176.168 183.679,175.890 163.600 C 175.831 159.310,175.741 165.644,175.691 177.676 M141.787 186.000 C 141.787 197.990,141.838 202.895,141.900 196.900 C 141.962 190.905,141.962 181.095,141.900 175.100 C 141.838 169.105,141.787 174.010,141.787 186.000 M226.889 181.876 C 226.840 191.598,226.935 199.636,227.100 199.739 C 227.373 199.907,227.367 186.184,227.088 170.400 C 227.028 166.990,226.938 172.154,226.889 181.876 M235.782 182.000 C 235.782 190.910,235.835 194.555,235.900 190.100 C 235.964 185.645,235.964 178.355,235.900 173.900 C 235.835 169.445,235.782 173.090,235.782 182.000 M204.100 177.491 C 204.925 177.578,206.275 177.578,207.100 177.491 C 207.925 177.405,207.250 177.334,205.600 177.334 C 203.950 177.334,203.275 177.405,204.100 177.491 M264.112 181.895 C 265.164 181.977,266.784 181.976,267.712 181.892 C 268.640 181.808,267.780 181.741,265.800 181.742 C 263.820 181.743,263.060 181.812,264.112 181.895 " stroke="none" fill="#6c6c6c" fill-rule="evenodd"></path><path id="path3" d="M133.700 154.812 C 132.447 155.316,132.565 155.670,133.826 155.190 C 135.237 154.654,158.220 154.676,159.226 155.214 C 159.906 155.578,160.000 156.080,160.000 159.334 C 160.000 164.017,160.018 164.000,155.120 164.000 L 151.200 164.000 151.200 185.767 C 151.200 197.739,151.093 207.864,150.962 208.267 C 150.765 208.877,150.797 208.899,151.156 208.400 C 151.452 207.989,151.590 200.979,151.594 186.100 L 151.600 164.400 155.371 164.400 C 160.310 164.400,160.400 164.310,160.400 159.394 C 160.400 154.059,161.331 154.394,146.611 154.425 C 140.005 154.439,134.195 154.613,133.700 154.812 M167.300 154.812 C 165.956 155.353,166.213 155.624,167.608 155.137 C 169.381 154.519,175.137 154.855,175.611 155.604 C 175.872 156.018,175.990 156.044,175.994 155.690 C 176.008 154.527,169.616 153.882,167.300 154.812 M218.500 154.812 C 217.143 155.358,217.420 155.621,218.832 155.129 C 219.628 154.851,223.347 154.756,229.332 154.859 C 234.429 154.946,237.700 154.895,236.600 154.744 C 233.645 154.339,219.545 154.393,218.500 154.812 M253.520 154.705 C 253.146 154.867,257.556 155.000,263.320 155.000 C 275.638 155.000,276.694 155.269,279.000 158.996 L 280.200 160.935 280.330 171.481 C 280.447 181.007,280.281 183.699,279.423 186.200 C 279.273 186.640,279.476 186.460,279.875 185.800 C 281.102 183.769,280.966 161.684,279.711 159.338 C 278.732 157.506,277.334 156.255,275.200 155.301 C 273.682 154.622,254.902 154.106,253.520 154.705 M252.496 181.820 C 252.423 201.943,252.514 208.354,252.880 208.720 C 253.201 209.041,254.691 209.174,257.380 209.122 L 261.400 209.043 257.200 208.822 L 253.000 208.600 252.796 182.000 L 252.591 155.400 252.496 181.820 M166.097 181.871 C 166.010 205.123,166.068 208.011,166.629 208.571 C 167.450 209.393,191.908 209.532,192.720 208.720 C 193.027 208.413,193.200 206.853,193.200 204.400 C 193.200 199.301,193.751 199.600,184.353 199.600 C 179.366 199.600,176.392 199.449,176.263 199.190 C 176.151 198.965,176.106 199.010,176.163 199.290 C 176.241 199.675,178.262 199.849,184.433 200.000 L 192.600 200.200 192.600 204.400 L 192.600 208.600 179.954 208.706 C 169.693 208.791,167.222 208.709,166.857 208.268 C 166.535 207.881,166.376 200.286,166.300 181.763 L 166.194 155.800 166.097 181.871 M217.297 181.871 C 217.210 205.123,217.268 208.011,217.829 208.571 C 218.371 209.114,219.787 209.187,228.129 209.107 L 237.800 209.015 228.143 208.900 C 220.721 208.812,218.384 208.663,218.046 208.256 C 217.738 207.885,217.574 199.919,217.500 181.763 L 217.394 155.800 217.297 181.871 M241.999 157.417 C 242.768 158.288,243.555 159.180,243.748 159.400 C 244.284 160.013,243.284 158.283,242.707 157.600 C 242.428 157.270,241.840 156.738,241.400 156.417 C 240.960 156.097,241.230 156.547,241.999 157.417 M132.540 159.600 C 132.540 161.470,132.609 162.235,132.693 161.300 C 132.777 160.365,132.777 158.835,132.693 157.900 C 132.609 156.965,132.540 157.730,132.540 159.600 M244.056 160.400 C 244.056 160.730,244.211 161.360,244.400 161.800 C 244.617 162.304,244.744 162.378,244.744 162.000 C 244.744 161.670,244.589 161.040,244.400 160.600 C 244.183 160.096,244.056 160.022,244.056 160.400 M244.985 182.000 C 244.985 192.450,245.036 196.725,245.100 191.500 C 245.163 186.275,245.163 177.725,245.100 172.500 C 245.036 167.275,244.985 171.550,244.985 182.000 M135.913 164.295 C 137.076 164.376,138.876 164.376,139.913 164.293 C 140.951 164.211,140.000 164.145,137.800 164.146 C 135.600 164.147,134.751 164.214,135.913 164.295 M230.579 164.299 C 232.558 164.373,234.436 164.650,234.779 164.917 C 235.325 165.341,235.333 165.315,234.851 164.700 C 234.390 164.112,233.716 164.013,230.651 164.082 L 227.000 164.165 230.579 164.299 M262.267 164.267 C 261.897 164.637,261.929 181.600,262.300 181.600 C 262.465 181.601,262.548 177.731,262.485 173.000 L 262.370 164.400 266.171 164.400 C 271.053 164.400,270.848 163.999,270.709 173.279 L 270.600 180.577 269.600 181.083 C 268.976 181.398,268.840 181.590,269.238 181.594 C 271.238 181.613,272.373 167.453,270.577 164.889 C 269.955 164.001,263.050 163.484,262.267 164.267 M235.295 181.667 C 235.243 190.614,235.096 198.264,234.970 198.667 C 234.762 199.328,234.782 199.334,235.174 198.727 C 235.474 198.264,235.575 192.978,235.500 181.727 L 235.391 165.400 235.295 181.667 M202.138 177.106 C 201.883 177.268,203.350 177.400,205.398 177.400 C 207.445 177.400,208.913 177.268,208.660 177.106 C 208.407 176.944,206.940 176.812,205.400 176.812 C 203.860 176.812,202.392 176.944,202.138 177.106 M200.643 178.233 C 200.117 179.604,200.388 185.032,201.022 185.824 C 201.614 186.562,201.622 186.554,201.184 185.655 C 200.905 185.083,200.778 183.307,200.862 181.155 C 201.011 177.327,201.007 177.283,200.643 178.233 M209.746 181.800 C 209.747 184.000,209.814 184.849,209.895 183.687 C 209.976 182.524,209.976 180.724,209.893 179.687 C 209.811 178.649,209.745 179.600,209.746 181.800 M205.400 186.400 L 201.800 186.649 205.200 186.718 C 207.070 186.756,208.870 186.613,209.200 186.400 C 209.530 186.187,209.620 186.044,209.400 186.082 C 209.180 186.120,207.380 186.263,205.400 186.400 M277.775 188.500 L 276.600 189.800 277.900 188.625 C 278.615 187.979,279.200 187.394,279.200 187.325 C 279.200 187.016,278.870 187.288,277.775 188.500 M262.198 191.300 C 261.949 192.004,261.756 208.779,262.000 208.535 C 262.110 208.425,262.290 204.525,262.400 199.868 L 262.600 191.400 264.400 191.400 C 266.100 191.400,266.227 191.478,266.677 192.800 C 266.983 193.696,267.163 193.908,267.177 193.389 C 267.235 191.307,262.847 189.466,262.198 191.300 M276.068 191.400 C 276.062 191.840,276.211 192.560,276.400 193.000 C 276.838 194.019,276.838 192.968,276.400 191.600 C 276.143 190.796,276.077 190.757,276.068 191.400 M276.827 194.280 C 276.792 194.912,277.927 199.261,278.198 199.531 C 278.314 199.647,278.287 199.133,278.138 198.389 C 277.767 196.534,276.860 193.691,276.827 194.280 M267.268 194.800 C 267.288 195.839,267.918 197.546,267.932 196.600 C 267.938 196.160,267.789 195.440,267.600 195.000 C 267.389 194.510,267.261 194.432,267.268 194.800 M268.046 198.000 C 268.065 198.330,268.224 199.050,268.400 199.600 L 268.720 200.600 268.754 199.600 C 268.773 199.050,268.613 198.330,268.400 198.000 C 268.055 197.467,268.016 197.467,268.046 198.000 M227.302 199.200 C 227.481 199.862,233.438 200.320,234.044 199.718 C 234.220 199.543,232.907 199.460,231.125 199.532 C 228.762 199.629,227.786 199.521,227.513 199.132 C 227.216 198.710,227.173 198.724,227.302 199.200 M201.300 199.865 C 201.025 199.976,200.800 200.254,200.800 200.482 C 200.800 200.747,201.004 200.729,201.360 200.433 C 201.721 200.134,203.246 200.010,205.660 200.084 L 209.400 200.200 209.491 204.800 L 209.582 209.400 207.486 212.400 C 204.814 216.224,201.258 217.185,201.563 214.000 C 201.604 213.561,201.501 213.594,201.178 214.121 C 200.499 215.231,201.399 216.000,203.379 216.000 C 205.293 216.000,205.739 215.615,208.343 211.722 L 210.000 209.244 210.000 204.902 C 210.000 202.058,209.834 200.394,209.520 200.080 C 209.045 199.605,202.376 199.431,201.300 199.865 M278.468 200.600 C 278.462 201.040,278.611 201.760,278.800 202.200 C 279.238 203.219,279.238 202.168,278.800 200.800 C 278.543 199.996,278.477 199.957,278.468 200.600 M269.044 201.800 C 269.373 203.271,269.602 203.590,269.594 202.567 C 269.591 202.145,269.405 201.530,269.182 201.200 C 268.885 200.762,268.848 200.924,269.044 201.800 M200.540 204.400 C 200.540 206.270,200.609 207.035,200.693 206.100 C 200.777 205.165,200.777 203.635,200.693 202.700 C 200.609 201.765,200.540 202.530,200.540 204.400 M244.020 203.297 C 243.711 204.333,242.874 205.608,241.884 206.553 C 240.988 207.407,240.628 207.906,241.085 207.662 C 242.779 206.755,245.409 202.475,244.704 201.771 C 244.607 201.674,244.300 202.361,244.020 203.297 M279.206 203.833 C 279.209 204.255,279.395 204.870,279.618 205.200 C 279.915 205.638,279.952 205.476,279.756 204.600 C 279.427 203.129,279.198 202.810,279.206 203.833 M269.668 204.000 C 269.688 205.039,270.318 206.746,270.332 205.800 C 270.338 205.360,270.189 204.640,270.000 204.200 C 269.789 203.710,269.661 203.632,269.668 204.000 M280.101 207.400 C 280.105 208.280,280.187 208.593,280.283 208.095 C 280.379 207.598,280.375 206.878,280.275 206.495 C 280.175 206.113,280.096 206.520,280.101 207.400 M270.414 207.011 C 270.355 208.724,271.556 209.202,275.723 209.122 L 279.800 209.043 275.666 208.822 C 271.778 208.613,271.499 208.541,270.980 207.600 C 270.677 207.050,270.422 206.785,270.414 207.011 M141.612 207.851 C 141.583 208.932,142.780 209.228,146.659 209.099 L 150.600 208.967 146.520 208.884 C 143.112 208.814,142.373 208.685,142.032 208.100 C 141.808 207.715,141.619 207.603,141.612 207.851 M201.132 208.456 C 201.666 209.167,203.600 209.706,203.600 209.145 C 203.600 208.955,203.186 208.800,202.680 208.800 C 202.174 208.800,201.508 208.575,201.199 208.300 C 200.727 207.879,200.717 207.904,201.132 208.456 M202.800 210.084 C 202.800 210.204,202.528 210.954,202.195 211.751 C 201.862 212.548,201.679 213.200,201.789 213.200 C 202.106 213.200,203.233 210.300,203.005 210.072 C 202.892 209.959,202.800 209.965,202.800 210.084 " stroke="none" fill="#8d8d8d" fill-rule="evenodd"></path><path id="path4" d="M133.214 155.974 C 132.986 156.399,132.800 157.999,132.800 159.529 C 132.800 163.608,133.202 163.960,138.000 164.094 L 141.800 164.200 142.005 186.200 L 142.210 208.200 142.305 186.380 C 142.415 161.224,142.891 163.600,137.734 163.600 C 133.340 163.600,133.200 163.470,133.200 159.400 C 133.200 157.941,133.386 156.399,133.614 155.974 C 133.842 155.548,133.938 155.200,133.828 155.200 C 133.718 155.200,133.442 155.548,133.214 155.974 M159.190 155.463 C 159.426 155.581,159.600 157.257,159.600 159.426 C 159.600 163.806,159.928 163.537,154.400 163.700 L 151.000 163.800 150.995 185.700 L 150.990 207.600 151.098 185.800 L 151.207 164.000 154.927 164.000 C 160.000 164.000,160.062 163.941,159.916 159.226 C 159.834 156.573,159.650 155.435,159.290 155.362 C 159.010 155.306,158.965 155.351,159.190 155.463 M166.880 155.680 C 166.246 156.314,166.182 206.846,166.814 208.026 C 167.361 209.048,191.528 209.250,192.367 208.240 C 192.666 207.879,192.790 206.354,192.716 203.940 L 192.600 200.200 184.500 200.187 L 176.399 200.175 184.414 200.296 L 192.429 200.417 192.314 204.308 L 192.200 208.200 179.827 208.306 C 170.195 208.388,167.383 208.300,167.133 207.906 C 166.579 207.032,166.721 156.239,167.280 155.680 C 167.544 155.416,167.670 155.200,167.560 155.200 C 167.450 155.200,167.144 155.416,166.880 155.680 M175.107 177.307 C 175.165 189.443,175.345 199.506,175.507 199.667 C 175.668 199.828,175.752 190.030,175.693 177.893 C 175.635 165.757,175.455 155.694,175.293 155.533 C 175.132 155.372,175.048 165.170,175.107 177.307 M217.843 155.833 C 217.402 156.982,217.567 207.190,218.014 208.026 C 218.440 208.822,236.204 209.216,238.088 208.472 C 238.467 208.322,234.255 208.257,228.728 208.326 C 220.754 208.426,218.610 208.343,218.346 207.926 C 217.783 207.038,217.914 156.246,218.480 155.680 C 218.801 155.359,218.815 155.200,218.523 155.200 C 218.282 155.200,217.976 155.485,217.843 155.833 M236.833 155.344 C 236.925 155.423,237.540 155.608,238.200 155.756 C 239.076 155.952,239.238 155.915,238.800 155.618 C 238.260 155.253,236.432 154.998,236.833 155.344 M253.067 155.467 C 252.548 155.986,252.757 207.797,253.280 208.320 C 253.810 208.850,261.022 209.011,261.339 208.500 C 261.441 208.335,259.697 208.200,257.463 208.200 L 253.400 208.200 253.297 182.025 C 253.216 161.351,253.300 155.784,253.697 155.532 C 253.993 155.344,254.022 155.210,253.767 155.206 C 253.528 155.203,253.213 155.320,253.067 155.467 M273.200 155.600 C 274.568 156.038,275.619 156.038,274.600 155.600 C 274.160 155.411,273.440 155.262,273.000 155.268 C 272.357 155.277,272.396 155.343,273.200 155.600 M277.230 157.649 C 278.204 158.612,279.077 159.353,279.171 159.296 C 279.428 159.139,277.113 156.792,276.230 156.314 C 275.807 156.085,276.257 156.685,277.230 157.649 M242.034 157.847 C 242.565 158.533,243.080 159.023,243.179 158.935 C 243.277 158.847,242.843 158.286,242.213 157.688 L 241.069 156.600 242.034 157.847 M280.173 172.600 C 280.173 177.880,280.230 179.985,280.299 177.277 C 280.368 174.569,280.368 170.249,280.299 167.677 C 280.229 165.105,280.172 167.320,280.173 172.600 M226.880 164.080 C 226.337 164.623,226.161 199.405,226.700 199.738 C 226.865 199.840,227.000 191.886,227.000 182.062 L 227.000 164.200 230.600 163.976 L 234.200 163.751 230.780 163.676 C 228.560 163.627,227.192 163.768,226.880 164.080 M244.496 181.450 C 244.443 191.378,244.311 200.108,244.201 200.850 L 244.003 202.200 244.405 200.928 C 244.658 200.131,244.768 192.901,244.700 181.528 L 244.592 163.400 244.496 181.450 M261.867 163.867 C 261.720 164.013,261.600 168.134,261.600 173.024 C 261.600 183.257,261.220 182.440,265.933 182.325 L 269.000 182.251 265.600 182.025 L 262.200 181.800 262.092 172.915 L 261.985 164.029 265.892 163.898 L 269.800 163.767 265.967 163.684 C 263.858 163.638,262.013 163.720,261.867 163.867 M271.366 172.800 C 271.366 176.870,271.425 178.535,271.498 176.500 C 271.571 174.465,271.571 171.135,271.498 169.100 C 271.425 167.065,271.366 168.730,271.366 172.800 M201.214 178.374 C 200.986 178.799,200.830 180.464,200.868 182.074 L 200.935 185.000 201.168 181.800 C 201.295 180.040,201.546 178.375,201.724 178.100 C 201.902 177.825,201.953 177.600,201.838 177.600 C 201.722 177.600,201.442 177.948,201.214 178.374 M201.549 185.700 C 202.002 186.278,202.666 186.386,205.349 186.320 L 208.600 186.239 205.419 186.101 C 203.669 186.025,201.959 185.747,201.619 185.482 C 201.076 185.059,201.067 185.085,201.549 185.700 M275.858 189.387 C 275.450 189.696,275.180 190.124,275.258 190.338 C 275.336 190.551,275.723 190.293,276.119 189.763 C 276.940 188.662,276.898 188.600,275.858 189.387 M261.867 190.667 C 261.720 190.813,261.639 194.638,261.687 199.167 L 261.775 207.400 261.987 199.200 L 262.200 191.000 264.187 190.875 C 265.719 190.778,266.291 190.910,266.687 191.451 C 266.969 191.837,267.200 191.975,267.200 191.756 C 267.200 190.625,262.806 189.727,261.867 190.667 M267.256 193.200 C 267.256 193.530,267.411 194.160,267.600 194.600 C 267.817 195.104,267.944 195.178,267.944 194.800 C 267.944 194.470,267.789 193.840,267.600 193.400 C 267.383 192.896,267.256 192.822,267.256 193.200 M276.856 196.400 C 276.856 196.730,277.011 197.360,277.200 197.800 C 277.417 198.304,277.544 198.378,277.544 198.000 C 277.544 197.670,277.389 197.040,277.200 196.600 C 276.983 196.096,276.856 196.022,276.856 196.400 M268.856 199.200 C 268.856 199.530,269.011 200.160,269.200 200.600 C 269.417 201.104,269.544 201.178,269.544 200.800 C 269.544 200.470,269.389 199.840,269.200 199.400 C 268.983 198.896,268.856 198.822,268.856 199.200 M201.222 200.759 C 199.976 203.088,200.988 208.807,202.644 208.794 C 203.259 208.789,203.214 208.694,202.400 208.284 C 201.364 207.761,200.779 203.733,201.387 201.308 C 201.637 200.315,208.866 199.862,209.337 200.810 C 209.449 201.036,209.494 200.990,209.438 200.710 C 209.245 199.750,201.738 199.795,201.222 200.759 M228.700 200.289 C 229.415 200.378,230.585 200.378,231.300 200.289 C 232.015 200.201,231.430 200.128,230.000 200.128 C 228.570 200.128,227.985 200.201,228.700 200.289 M278.456 202.400 C 278.456 202.730,278.611 203.360,278.800 203.800 C 279.017 204.304,279.144 204.378,279.144 204.000 C 279.144 203.670,278.989 203.040,278.800 202.600 C 278.583 202.096,278.456 202.022,278.456 202.400 M279.646 207.300 L 279.600 208.400 275.633 208.400 C 273.323 208.400,271.582 208.229,271.463 207.990 C 271.351 207.764,271.306 207.810,271.362 208.090 C 271.436 208.454,272.631 208.633,275.540 208.714 C 279.839 208.834,280.324 208.635,279.880 206.923 C 279.758 206.450,279.677 206.580,279.646 207.300 M146.400 208.400 L 142.200 208.643 146.276 208.722 C 148.651 208.767,150.456 208.633,150.600 208.400 C 150.736 208.180,150.792 208.035,150.724 208.078 C 150.656 208.121,148.710 208.266,146.400 208.400 M207.324 211.862 C 206.183 213.707,205.408 215.119,205.602 214.999 C 206.079 214.704,209.742 208.803,209.551 208.638 C 209.468 208.566,208.466 210.017,207.324 211.862 M201.952 215.312 C 202.145 215.505,202.819 215.598,203.451 215.519 C 204.509 215.387,204.481 215.359,203.100 215.168 C 202.240 215.049,201.750 215.110,201.952 215.312 " stroke="none" fill="#5c5c5c" fill-rule="evenodd"></path></g></svg>