<?xml version="1.0" encoding="UTF-8" standalone="no"?>
<svg
   xmlns:dc="http://purl.org/dc/elements/1.1/"
   xmlns:cc="http://creativecommons.org/ns#"
   xmlns:rdf="http://www.w3.org/1999/02/22-rdf-syntax-ns#"
   xmlns:svg="http://www.w3.org/2000/svg"
   xmlns="http://www.w3.org/2000/svg"
   xmlns:sodipodi="http://sodipodi.sourceforge.net/DTD/sodipodi-0.dtd"
   xmlns:inkscape="http://www.inkscape.org/namespaces/inkscape"
   width="48"
   height="48"
   id="svg2"
   version="1.1"
   inkscape:version="0.48.4 r9939"
   sodipodi:docname="topic_models.svg">
  <sodipodi:namedview
     pagecolor="#ffffff"
     bordercolor="#666666"
     borderopacity="1"
     objecttolerance="10"
     gridtolerance="10"
     guidetolerance="10"
     inkscape:pageopacity="0"
     inkscape:pageshadow="2"
     inkscape:window-width="1624"
     inkscape:window-height="943"
     id="namedview12"
     showgrid="false"
     inkscape:zoom="7.8156315"
     inkscape:cx="58.50785"
     inkscape:cy="17.937985"
     inkscape:window-x="0"
     inkscape:window-y="0"
     inkscape:window-maximized="0"
     inkscape:current-layer="svg2"
     showguides="true"
     inkscape:guide-bbox="true" />
  <metadata
     id="metadata16">
    <rdf:RDF>
      <cc:Work
         rdf:about="">
        <dc:format>image/svg+xml</dc:format>
        <dc:type
           rdf:resource="http://purl.org/dc/dcmitype/StillImage" />
        <dc:title>Category Icon</dc:title>
      </cc:Work>
    </rdf:RDF>
  </metadata>
  <defs
     id="defs14" />
  <!-- Created with SVG-edit - http://svg-edit.googlecode.com/ -->
  <title
     id="title4">Category Icon</title>
  <g
     id="g3911"
     transform="translate(-0.70264133,-0.66846192)">
    <path
       style="fill:none;stroke:#333333;stroke-width:1px;stroke-linecap:butt;stroke-linejoin:round;stroke-opacity:1"
       d="m 9.9520744,13.267798 c 0,0 -3.8679809,24.32776 -2.4427819,26.227702 1.4833141,1.977416 12.9382055,1.87252 14.3852715,0 1.447066,-1.87252 -2.533256,-26.227702 -2.533256,-26.227702 z"
       id="path3041"
       inkscape:connector-curvature="0"
       sodipodi:nodetypes="cszcc" />
    <path
       style="fill:none;stroke:#333333;stroke-width:1px;stroke-linecap:butt;stroke-linejoin:round;stroke-opacity:1"
       d="m 9.9520744,13.258213 c 0,0 -1.3402819,-0.506613 -1.357101,-1.085681 -0.047118,-1.622243 2.0556516,-2.5248385 3.6189366,-3.257042 1.563285,-0.7322035 3.276557,-0.6480082 4.704617,0 1.751594,0.7948177 3.828145,1.589035 3.799882,3.257042 -0.0098,0.579229 -1.357101,1.085681 -1.357101,1.085681 z"
       id="path3823"
       inkscape:connector-curvature="0"
       sodipodi:nodetypes="cszsscc" />
    <path
       sodipodi:type="arc"
       style="stroke:#333333;stroke-linecap:butt;stroke-linejoin:round;stroke-opacity:1"
       id="path3833"
       sodipodi:cx="10.947282"
       sodipodi:cy="11.560576"
       sodipodi:rx="0.18094681"
       sodipodi:ry="0.29277807"
       d="m 11.128229,11.560576 c 0,0.161697 -0.08101,0.292779 -0.180947,0.292779 -0.09993,0 -0.180947,-0.131082 -0.180947,-0.292779 0,-0.161696 0.08101,-0.292778 0.180947,-0.292778 0.09993,0 0.180947,0.131082 0.180947,0.292778 z"
       transform="translate(-0.45236702,0)" />
    <path
       transform="translate(7.7285802,0.09047341)"
       d="m 11.128229,11.560576 c 0,0.161697 -0.08101,0.292779 -0.180947,0.292779 -0.09993,0 -0.180947,-0.131082 -0.180947,-0.292779 0,-0.161696 0.08101,-0.292778 0.180947,-0.292778 0.09993,0 0.180947,0.131082 0.180947,0.292778 z"
       sodipodi:ry="0.29277807"
       sodipodi:rx="0.18094681"
       sodipodi:cy="11.560576"
       sodipodi:cx="10.947282"
       id="path3835"
       style="stroke:#333333;stroke-linecap:butt;stroke-linejoin:round;stroke-opacity:1"
       sodipodi:type="arc" />
    <path
       transform="translate(1.45716,-0.904734)"
       d="m 11.128229,11.560576 c 0,0.161697 -0.08101,0.292779 -0.180947,0.292779 -0.09993,0 -0.180947,-0.131082 -0.180947,-0.292779 0,-0.161696 0.08101,-0.292778 0.180947,-0.292778 0.09993,0 0.180947,0.131082 0.180947,0.292778 z"
       sodipodi:ry="0.29277807"
       sodipodi:rx="0.18094681"
       sodipodi:cy="11.560576"
       sodipodi:cx="10.947282"
       id="path3839"
       style="stroke:#333333;stroke-linecap:butt;stroke-linejoin:round;stroke-opacity:1"
       sodipodi:type="arc" />
    <path
       sodipodi:type="arc"
       style="stroke:#333333;stroke-linecap:butt;stroke-linejoin:round;stroke-opacity:1"
       id="path3841"
       sodipodi:cx="10.947282"
       sodipodi:cy="11.560576"
       sodipodi:rx="0.18094681"
       sodipodi:ry="0.29277807"
       d="m 11.128229,11.560576 c 0,0.161697 -0.08101,0.292779 -0.180947,0.292779 -0.09993,0 -0.180947,-0.131082 -0.180947,-0.292779 0,-0.161696 0.08101,-0.292778 0.180947,-0.292778 0.09993,0 0.180947,0.131082 0.180947,0.292778 z"
       transform="translate(5.7285802,-0.9952074)" />
    <path
       sodipodi:type="arc"
       style="stroke:#333333;stroke-linecap:butt;stroke-linejoin:round;stroke-opacity:1"
       id="path3843"
       sodipodi:cx="10.947282"
       sodipodi:cy="11.560576"
       sodipodi:rx="0.18094681"
       sodipodi:ry="0.29277807"
       d="m 11.128229,11.560576 c 0,0.161697 -0.08101,0.292779 -0.180947,0.292779 -0.09993,0 -0.180947,-0.131082 -0.180947,-0.292779 0,-0.161696 0.08101,-0.292778 0.180947,-0.292778 0.09993,0 0.180947,0.131082 0.180947,0.292778 z"
       transform="translate(3.5476334,-1.4571596)" />
    <path
       sodipodi:nodetypes="zszzz"
       inkscape:connector-curvature="0"
       id="path3847"
       d="m 10.585388,19.148569 c -0.394181,1.328469 -2.4903678,17.200873 -1.4475742,18.71841 1.3999472,2.037288 10.1603872,1.87252 11.1282282,0 0.967841,-1.87252 -1.124012,-17.71625 -1.447574,-18.71841 -0.323562,-1.00216 -7.838899,-1.328469 -8.23308,0 z"
       style="fill:none;stroke:#333333;stroke-width:1px;stroke-linecap:butt;stroke-linejoin:round;stroke-opacity:1" />
  </g>
  <g
     id="g3921"
     transform="translate(-0.70264133,-0.66846192)">
    <path
       sodipodi:nodetypes="cszcc"
       inkscape:connector-curvature="0"
       id="path3851"
       d="m 29.952074,13.267798 c 0,0 -3.86798,24.32776 -2.442782,26.227702 1.483315,1.977416 12.938206,1.87252 14.385272,0 1.447066,-1.87252 -2.533256,-26.227702 -2.533256,-26.227702 z"
       style="fill:none;stroke:#333333;stroke-width:1px;stroke-linecap:butt;stroke-linejoin:round;stroke-opacity:1" />
    <path
       sodipodi:nodetypes="cszsscc"
       inkscape:connector-curvature="0"
       id="path3853"
       d="m 29.952074,13.258213 c 0,0 -1.340282,-0.506613 -1.357101,-1.085681 -0.04712,-1.622243 2.055652,-2.5248385 3.618937,-3.257042 1.563285,-0.7322035 3.276557,-0.6480082 4.704617,0 1.751594,0.7948177 3.828145,1.589035 3.799882,3.257042 -0.0098,0.579229 -1.357101,1.085681 -1.357101,1.085681 z"
       style="fill:none;stroke:#333333;stroke-width:1px;stroke-linecap:butt;stroke-linejoin:round;stroke-opacity:1" />
    <path
       transform="translate(19.547633,0)"
       d="m 11.128229,11.560576 c 0,0.161697 -0.08101,0.292779 -0.180947,0.292779 -0.09993,0 -0.180947,-0.131082 -0.180947,-0.292779 0,-0.161696 0.08101,-0.292778 0.180947,-0.292778 0.09993,0 0.180947,0.131082 0.180947,0.292778 z"
       sodipodi:ry="0.29277807"
       sodipodi:rx="0.18094681"
       sodipodi:cy="11.560576"
       sodipodi:cx="10.947282"
       id="path3855"
       style="stroke:#333333;stroke-linecap:butt;stroke-linejoin:round;stroke-opacity:1"
       sodipodi:type="arc" />
    <path
       sodipodi:type="arc"
       style="stroke:#333333;stroke-linecap:butt;stroke-linejoin:round;stroke-opacity:1"
       id="path3857"
       sodipodi:cx="10.947282"
       sodipodi:cy="11.560576"
       sodipodi:rx="0.18094681"
       sodipodi:ry="0.29277807"
       d="m 11.128229,11.560576 c 0,0.161697 -0.08101,0.292779 -0.180947,0.292779 -0.09993,0 -0.180947,-0.131082 -0.180947,-0.292779 0,-0.161696 0.08101,-0.292778 0.180947,-0.292778 0.09993,0 0.180947,0.131082 0.180947,0.292778 z"
       transform="translate(27.72858,0.09047341)" />
    <path
       sodipodi:type="arc"
       style="stroke:#333333;stroke-linecap:butt;stroke-linejoin:round;stroke-opacity:1"
       id="path3859"
       sodipodi:cx="10.947282"
       sodipodi:cy="11.560576"
       sodipodi:rx="0.18094681"
       sodipodi:ry="0.29277807"
       d="m 11.128229,11.560576 c 0,0.161697 -0.08101,0.292779 -0.180947,0.292779 -0.09993,0 -0.180947,-0.131082 -0.180947,-0.292779 0,-0.161696 0.08101,-0.292778 0.180947,-0.292778 0.09993,0 0.180947,0.131082 0.180947,0.292778 z"
       transform="translate(21.45716,-0.904734)" />
    <path
       transform="translate(25.72858,-0.9952074)"
       d="m 11.128229,11.560576 c 0,0.161697 -0.08101,0.292779 -0.180947,0.292779 -0.09993,0 -0.180947,-0.131082 -0.180947,-0.292779 0,-0.161696 0.08101,-0.292778 0.180947,-0.292778 0.09993,0 0.180947,0.131082 0.180947,0.292778 z"
       sodipodi:ry="0.29277807"
       sodipodi:rx="0.18094681"
       sodipodi:cy="11.560576"
       sodipodi:cx="10.947282"
       id="path3861"
       style="stroke:#333333;stroke-linecap:butt;stroke-linejoin:round;stroke-opacity:1"
       sodipodi:type="arc" />
    <path
       transform="translate(23.547633,-1.4571596)"
       d="m 11.128229,11.560576 c 0,0.161697 -0.08101,0.292779 -0.180947,0.292779 -0.09993,0 -0.180947,-0.131082 -0.180947,-0.292779 0,-0.161696 0.08101,-0.292778 0.180947,-0.292778 0.09993,0 0.180947,0.131082 0.180947,0.292778 z"
       sodipodi:ry="0.29277807"
       sodipodi:rx="0.18094681"
       sodipodi:cy="11.560576"
       sodipodi:cx="10.947282"
       id="path3863"
       style="stroke:#333333;stroke-linecap:butt;stroke-linejoin:round;stroke-opacity:1"
       sodipodi:type="arc" />
    <path
       style="fill:#333333;fill-opacity:1;stroke:#333333;stroke-width:1px;stroke-linecap:butt;stroke-linejoin:round;stroke-opacity:1"
       d="m 30.585388,19.148569 c -0.394181,1.328469 -2.490368,17.200873 -1.447574,18.71841 1.399947,2.037288 10.160387,1.87252 11.128228,0 0.967841,-1.87252 -1.124012,-17.71625 -1.447574,-18.71841 -0.323562,-1.00216 -7.838899,-1.328469 -8.23308,0 z"
       id="path3865"
       inkscape:connector-curvature="0"
       sodipodi:nodetypes="zszzz" />
  </g>
</svg>
