<svg version="1.1" id="Layer_1" xmlns="http://www.w3.org/2000/svg" xmlns:xlink="http://www.w3.org/1999/xlink" x="0px" y="0px"
	 width="100%" viewBox="0 0 496 496" enable-background="new 0 0 496 496" xml:space="preserve">
<path fill="#000000" opacity="1.000000" stroke="none" 
	d="
M396.342621,250.116043 
	C385.515381,311.702698 344.112579,359.867737 278.075684,372.310272 
	C272.517578,373.357544 266.932281,374.240051 261.261017,374.357788 
	C256.657593,374.453400 253.120499,377.140869 249.426575,379.310181 
	C227.456757,392.211945 205.546478,405.215027 183.595581,418.149078 
	C181.790359,419.212738 180.095459,420.825684 177.614227,420.132355 
	C176.085587,418.429993 176.714539,416.336548 176.709167,414.427765 
	C176.658600,396.435272 176.638977,378.442352 176.723129,360.450073 
	C176.737488,357.383179 176.097687,355.084747 173.257141,353.338226 
	C137.602234,331.415344 116.350876,299.131226 107.671852,258.799896 
	C95.642960,202.901688 110.292137,154.414001 152.314026,115.449524 
	C174.858170,94.545639 202.516510,83.135696 233.185898,79.633041 
	C275.139038,74.841698 312.917786,85.526550 345.723572,111.932007 
	C374.161072,134.821396 390.216248,165.247299 396.392029,201.073914 
	C399.188324,217.295471 399.192291,233.478043 396.342621,250.116043 
M297.011597,342.498779 
	C347.666565,322.665649 379.967072,270.077942 374.784576,214.903717 
	C372.981995,195.712585 367.773865,177.738129 357.670715,161.236969 
	C331.304474,118.173843 281.918427,95.327705 233.105927,102.643143 
	C202.312637,107.258087 175.829895,120.882607 155.708145,145.255875 
	C130.301346,176.030914 121.605438,211.478439 129.159607,250.329041 
	C136.899536,290.134918 159.080383,319.823212 195.624329,338.216888 
	C198.383713,339.605774 199.435837,341.445801 199.395386,344.502106 
	C199.260880,354.665466 199.310364,364.832062 199.385208,374.996674 
	C199.397903,376.719238 198.678879,378.680206 200.383926,380.199158 
	C203.180588,379.970367 205.295898,378.236023 207.535431,376.885742 
	C220.088104,369.317291 232.598083,361.677979 245.119003,354.056885 
	C247.261581,352.752747 249.378967,351.673950 252.059097,351.619873 
	C267.319122,351.312042 282.059753,348.291992 297.011597,342.498779 
z"/>
<path fill="#000000" opacity="1.000000" stroke="none" 
	d="
M190.376770,135.291779 
	C212.601120,120.800499 236.928467,114.949112 262.573761,117.964684 
	C304.467285,122.890846 335.150513,144.790390 350.876221,184.288269 
	C368.442596,228.409195 359.632385,268.747986 327.808502,303.466461 
	C311.597321,321.152130 290.478943,331.214355 266.586975,334.358246 
	C230.695877,339.081116 199.140350,329.323242 173.658707,303.354675 
	C155.476227,284.824738 145.609695,261.995850 143.578461,235.940781 
	C140.289093,193.747360 155.998489,160.376678 190.376770,135.291779 
M211.276047,263.398407 
	C212.318558,267.447968 212.168274,272.441132 218.739594,271.648376 
	C225.646057,270.815155 232.589691,270.294342 239.508255,269.554626 
	C241.816055,269.307861 243.699844,268.434021 243.701599,265.591949 
	C243.707489,256.108612 243.752029,246.625305 243.766800,237.141937 
	C243.769791,235.219849 242.930237,233.724304 240.878387,233.842819 
	C230.893188,234.419525 220.935715,233.514267 210.965073,233.458801 
	C207.986374,233.442230 207.016815,235.247208 207.208389,238.093658 
	C207.766510,246.385025 208.755005,254.597061 211.276047,263.398407 
M294.629486,241.300964 
	C294.105316,238.597580 296.464264,234.307495 291.061676,234.222778 
	C281.416443,234.071518 271.768219,234.112625 262.121277,234.065796 
	C259.424561,234.052704 258.278046,235.330048 258.299896,238.064423 
	C258.371613,247.046341 258.363251,256.029694 258.283234,265.011566 
	C258.255402,268.140564 259.590881,269.648254 262.723877,269.633972 
	C269.378052,269.603668 275.948975,270.481018 282.494812,271.561462 
	C286.577454,272.235321 289.009064,270.929626 290.107391,266.612244 
	C292.155914,258.559845 293.321808,250.371780 294.629486,241.300964 
M183.875198,172.960754 
	C181.001602,171.538696 178.671722,171.531326 176.683197,174.682648 
	C169.035049,186.803116 163.828583,199.757446 161.989059,214.066528 
	C161.587799,217.187790 163.020996,218.306458 165.283386,218.379791 
	C173.243729,218.637787 181.229599,219.368896 189.165894,217.841660 
	C191.230438,217.444382 192.560898,216.632446 192.617676,214.357819 
	C192.893188,203.319382 195.266541,192.638458 198.284332,182.087692 
	C199.107697,179.209091 198.202057,177.664429 195.471451,176.806625 
	C191.825180,175.661179 188.210464,174.415329 183.875198,172.960754 
M243.739395,189.826385 
	C243.763229,187.076614 243.935593,184.432739 239.875061,184.316330 
	C232.235367,184.097336 224.653122,183.218338 217.174179,181.556900 
	C214.713074,181.010162 212.930283,181.727997 212.267303,184.417358 
	C209.843811,194.248184 207.551041,204.090240 207.280945,214.289566 
	C207.191284,217.674911 208.968338,218.653152 211.912521,218.646149 
	C220.737854,218.625137 229.563278,218.623398 238.388657,218.625824 
	C242.343979,218.626907 243.983841,216.775360 243.860367,212.735596 
	C243.636597,205.415604 243.759857,198.085022 243.739395,189.826385 
M294.646912,211.499435 
	C293.681580,202.919510 292.492767,194.387131 290.153900,186.040131 
	C289.197235,182.626007 287.891541,181.179306 283.812408,181.958649 
	C276.986389,183.262817 269.991913,183.817184 263.041229,184.278915 
	C259.733154,184.498688 258.220306,185.400528 258.291351,188.950058 
	C258.454620,197.107620 258.454376,205.274017 258.261688,213.430725 
	C258.167572,217.414154 259.911743,218.729095 263.648560,218.677216 
	C271.974548,218.561630 280.304321,218.563248 288.630432,218.675018 
	C293.069946,218.734619 295.207520,216.919327 294.646912,211.499435 
M337.631866,202.767929 
	C334.869019,193.134506 331.192688,183.927917 325.614014,175.509613 
	C323.618988,172.499176 321.522217,171.584015 318.110779,172.964218 
	C314.266541,174.519485 310.290802,175.767456 306.325989,177.000214 
	C304.008667,177.720734 302.917358,179.006424 303.622986,181.420807 
	C306.653809,191.791290 308.558105,202.361801 309.572174,213.117599 
	C309.827362,215.824478 310.804962,218.520569 314.269165,218.557175 
	C321.254944,218.631027 328.244110,218.645416 335.228210,218.504120 
	C338.406158,218.439804 340.197998,216.721176 339.625824,213.330673 
	C339.075378,210.068817 338.384888,206.830582 337.631866,202.767929 
M167.192062,257.369354 
	C170.050140,264.304626 173.340439,271.009003 177.356400,277.367615 
	C179.057053,280.060333 180.884262,280.920624 183.975540,279.669128 
	C187.509125,278.238556 191.177155,277.069092 194.875092,276.136414 
	C198.211502,275.294983 198.961212,273.818726 198.080200,270.405762 
	C195.345505,259.811646 192.937851,249.125015 192.646164,238.106277 
	C192.590927,236.019318 191.880295,234.415985 189.586105,234.323273 
	C182.116333,234.021362 174.643524,233.728561 167.169281,233.628845 
	C163.067535,233.574112 161.612885,235.956299 162.427490,239.830566 
	C163.622910,245.515900 164.720108,251.229431 167.192062,257.369354 
M334.361542,257.921173 
	C336.593506,252.184647 338.324036,246.295715 339.464172,240.251663 
	C340.116669,236.792664 339.916107,233.943817 335.039124,234.107071 
	C328.227386,234.335068 321.399048,234.339340 314.586060,234.147644 
	C311.056366,234.048340 309.722839,235.864029 309.540741,238.862213 
	C308.874268,249.835617 306.764709,260.534485 303.660339,271.054016 
	C302.820557,273.899689 303.855743,275.353027 306.688385,276.129486 
	C310.365265,277.137390 314.035339,278.281342 317.545197,279.755127 
	C320.856873,281.145691 322.863922,280.096008 324.581909,277.276581 
	C328.222565,271.301849 331.521240,265.163177 334.361542,257.921173 
M243.876114,159.466019 
	C243.843048,153.140335 243.869461,146.813599 243.756668,140.489349 
	C243.677353,136.042252 242.480545,135.359528 238.688049,137.699646 
	C228.324570,144.094284 223.069885,154.177505 219.107529,165.166122 
	C218.378311,167.188400 218.970505,168.405624 221.117859,168.758026 
	C224.876862,169.374954 228.625198,170.089508 232.404282,170.545349 
	C243.659866,171.903015 243.796707,171.745331 243.876114,159.466019 
M266.423370,140.026489 
	C264.202545,138.437729 262.201263,136.330704 258.423004,136.683868 
	C258.423004,147.450104 258.382843,158.005371 258.459717,168.559784 
	C258.473694,170.476913 260.000397,170.859665 261.665771,170.822235 
	C267.630219,170.688232 273.514099,169.900803 279.397034,168.940689 
	C283.100128,168.336304 283.662018,166.602585 282.324982,163.406006 
	C278.704010,154.749146 274.302704,146.643448 266.423370,140.026489 
M223.012329,284.345428 
	C220.377304,284.474548 218.099701,285.067291 219.366791,288.477997 
	C223.263992,298.968353 228.885941,308.254608 238.364883,314.700745 
	C239.682022,315.596497 241.057312,316.719330 243.707855,315.856964 
	C243.707855,305.678680 243.765564,295.278229 243.667053,284.879242 
	C243.642593,282.296387 241.462616,282.204834 239.612762,282.398438 
	C234.340576,282.950287 229.084686,283.657593 223.012329,284.345428 
M274.377533,303.870728 
	C277.620453,299.396301 280.227722,294.582184 282.096497,289.377075 
	C282.903778,287.128601 283.251312,284.910370 280.066864,284.443604 
	C274.654755,283.650299 269.212952,283.059998 263.784302,282.379211 
	C259.748535,281.873138 258.083710,283.447357 258.218170,287.691864 
	C258.476318,295.842010 258.277405,304.005951 258.342316,312.163574 
	C258.353333,313.551819 257.761230,315.226562 259.905273,316.407562 
	C265.643372,313.885315 270.026093,309.449219 274.377533,303.870728 
M192.989029,160.705460 
	C195.562073,162.275970 198.394379,163.164230 201.291901,163.897034 
	C202.676315,164.247162 204.104797,164.356232 204.740952,162.862442 
	C207.334061,156.773270 209.893036,150.668304 212.768204,144.598618 
	C204.835098,146.613953 198.701019,151.000214 192.989990,156.064285 
	C191.677841,157.227798 190.756607,158.639999 192.989029,160.705460 
M299.359436,149.176605 
	C296.138428,147.412048 293.354279,144.645996 288.959229,144.440796 
	C291.415771,150.110641 293.702972,155.361084 295.963593,160.622940 
	C296.745728,162.443451 297.273560,164.782074 299.977417,163.966400 
	C303.694153,162.845184 307.912292,162.448746 310.310516,158.841843 
	C311.026428,157.765182 309.668304,156.721069 308.766449,156.036133 
	C305.867432,153.834320 302.907776,151.712265 299.359436,149.176605 
M207.005173,295.347229 
	C205.656860,293.093292 206.387970,288.724365 202.771332,288.917816 
	C198.829941,289.128693 194.755264,290.440552 190.906219,293.886932 
	C197.234818,299.495697 203.238510,304.635315 212.045868,307.696899 
	C210.146591,303.040558 208.722702,299.549713 207.005173,295.347229 
M295.248016,294.635162 
	C293.408905,298.956818 291.569794,303.278473 289.274261,308.672638 
	C297.574432,304.162933 304.505707,299.759338 310.437164,293.700531 
	C302.401184,287.261688 297.900604,287.435303 295.248016,294.635162 
z"/>
</svg>